<svg width="40" height="40" viewBox="0 0 40 40" fill="none" xmlns="http://www.w3.org/2000/svg">
<path d="M39.2003 0.798828V39.1988H0.800293V0.798828H39.2003Z" fill="white" fill-opacity="0.01"/>
<path d="M33.1116 13.0059C31.9871 13.6941 31.0555 14.6564 30.4042 15.8027C29.7529 16.949 29.4031 18.2419 29.3876 19.5602C29.392 21.0439 29.8316 22.4938 30.6519 23.7301C31.4722 24.9665 32.6371 25.9351 34.0024 26.5159C33.4642 28.2527 32.6675 29.8985 31.6392 31.3981C30.1679 33.516 28.6296 35.6339 26.2888 35.6339C23.948 35.6339 23.346 34.274 20.6484 34.274C18.0175 34.274 17.0815 35.6786 14.9419 35.6786C12.8023 35.6786 11.3084 33.7167 9.59181 31.309C7.32408 27.9361 6.07778 23.9805 6.00244 19.9169C6.00244 13.2284 10.3498 9.68402 14.6301 9.68402C16.9041 9.68402 18.7988 11.1777 20.2254 11.1777C21.5854 11.1777 23.7033 9.5949 26.2894 9.5949C27.619 9.56048 28.9368 9.8536 30.1265 10.4484C31.3162 11.0432 32.3413 11.9215 33.1116 13.0059ZM20.4042 9.21583C20.2471 9.21535 20.0904 9.20047 19.936 9.17136C19.8924 8.96607 19.87 8.75684 19.8691 8.54698C19.9435 6.82157 20.6132 5.17517 21.7642 3.88763C23.056 2.40375 24.8667 1.47049 26.8248 1.2793C26.8713 1.50667 26.8938 1.73831 26.8917 1.97038C26.8492 3.73029 26.2038 5.42228 25.0636 6.7635C24.4937 7.46672 23.7868 8.04674 22.9858 8.46832C22.1848 8.88989 21.3065 9.14421 20.4042 9.21583Z" fill="black"/>
</svg>
