<svg width="40" height="40" viewBox="0 0 40 40" fill="none" xmlns="http://www.w3.org/2000/svg">
<path d="M39.2003 0.800781V39.2008H0.800293V0.800781H39.2003Z" fill="white" fill-opacity="0.01"/>
<path fill-rule="evenodd" clip-rule="evenodd" d="M36 20.002C36 28.1815 29.8613 34.9273 21.9387 35.8864L21.9386 35.8862C21.9389 35.8861 21.9393 35.8861 21.9396 35.8861V24.8905H26.2658L27.1618 20.0016H21.9325V18.2727C21.9325 15.687 22.944 14.695 25.568 14.695C26.3805 14.695 27.04 14.7145 27.4178 14.7527V10.3234C26.7005 10.1252 24.9538 9.92695 23.9423 9.92695C18.5983 9.92695 16.1343 12.4487 16.1343 17.895V20.0016H12.832V24.8914H16.1343V35.5314H16.1351C16.1352 35.5314 16.1352 35.5314 16.1352 35.5314L16.1351 35.5317C9.16533 33.8028 4 27.506 4 20.002C4 11.1655 11.1636 4.00195 20 4.00195C28.8364 4.00195 36 11.1655 36 20.002Z" fill="#0866FF"/>
</svg>
