<svg width="40" height="40" viewBox="0 0 40 40" fill="none" xmlns="http://www.w3.org/2000/svg">
<path d="M39.2003 0.798828V39.1988H0.800293V0.798828H39.2003Z" fill="white" fill-opacity="0.01"/>
<path d="M35.4137 20.3009C35.4137 18.9898 35.3073 18.0331 35.0771 17.041H20.1064V22.9583H28.8939C28.7168 24.4289 27.7601 26.6435 25.634 28.1316L25.6042 28.3297L30.3377 31.9966L30.6656 32.0294C33.6774 29.2478 35.4137 25.1552 35.4137 20.3009Z" fill="#4285F4"/>
<path d="M20.1071 35.8891C24.4122 35.8891 28.0263 34.4717 30.6662 32.0269L25.6346 28.1291C24.2882 29.0681 22.4811 29.7236 20.1071 29.7236C15.8905 29.7236 12.3118 26.9422 11.036 23.0977L10.8491 23.1135L5.92716 26.9226L5.86279 27.1016C8.48484 32.3102 13.8707 35.8891 20.1071 35.8891Z" fill="#34A853"/>
<path d="M11.0351 23.0958C10.6985 22.1037 10.5037 21.0406 10.5037 19.9422C10.5037 18.8437 10.6985 17.7807 11.0174 16.7886L11.0085 16.5773L6.02495 12.707L5.8619 12.7846C4.78122 14.9461 4.16113 17.3733 4.16113 19.9422C4.16113 22.5111 4.78122 24.9382 5.8619 27.0997L11.0351 23.0958Z" fill="#FBBC05"/>
<path d="M20.1071 10.1654C23.1011 10.1654 25.1208 11.4587 26.2724 12.5395L30.7725 8.14571C28.0087 5.57679 24.4122 4 20.1071 4C13.8707 4 8.48484 7.57875 5.86279 12.7874L11.0183 16.7915C12.3118 12.9469 15.8905 10.1654 20.1071 10.1654Z" fill="#EB4335"/>
</svg>
