<svg width="74" height="74" viewBox="0 0 74 74" fill="none" xmlns="http://www.w3.org/2000/svg">
<g clip-path="url(#clip0_51_3802)">
<path d="M20.3111 18.399C20.2304 18.4802 20.1664 18.5767 20.1228 18.683C20.0791 18.7892 20.0566 18.903 20.0566 19.018C20.0566 19.133 20.0791 19.2469 20.1228 19.3531C20.1664 19.4593 20.2304 19.5558 20.3111 19.6371L27.9708 27.3677C28.1336 27.5319 28.3544 27.6241 28.5846 27.6241C28.8147 27.6241 29.0355 27.5319 29.1983 27.3677C29.3611 27.2035 29.4525 26.9809 29.4525 26.7487C29.4525 26.5165 29.3611 26.2938 29.1983 26.1296L21.5342 18.399C21.3717 18.236 21.1518 18.1445 20.9226 18.1445C20.6935 18.1445 20.4736 18.236 20.3111 18.399Z" fill="#243CA8"/>
<path d="M45.0689 22.6642V11.8711C45.0689 11.639 44.9775 11.4165 44.8148 11.2524C44.6522 11.0883 44.4315 10.9961 44.2015 10.9961C43.9714 10.9961 43.7507 11.0883 43.5881 11.2524C43.4254 11.4165 43.334 11.639 43.334 11.8711V22.6642C43.334 22.8963 43.4254 23.1188 43.5881 23.2829C43.7507 23.447 43.9714 23.5392 44.2015 23.5392C44.4315 23.5392 44.6522 23.447 44.8148 23.2829C44.9775 23.1188 45.0689 22.8963 45.0689 22.6642Z" fill="#243CA8"/>
<path d="M31.6186 7.16555C31.5901 7.05409 31.5401 6.94938 31.4716 6.8574C31.403 6.76542 31.3171 6.68796 31.2188 6.62946C31.1205 6.57096 31.0118 6.53256 30.8988 6.51644C30.7858 6.50033 30.6708 6.50682 30.5603 6.53555C30.4498 6.56428 30.346 6.61467 30.2548 6.68387C30.1636 6.75306 30.0868 6.83969 30.0288 6.93882C29.9708 7.03795 29.9327 7.14763 29.9168 7.26159C29.9008 7.37556 29.9072 7.49159 29.9357 7.60305L32.5381 18.103C32.5666 18.2145 32.6166 18.3192 32.6852 18.4112C32.7538 18.5032 32.8396 18.5806 32.9379 18.6391C33.0362 18.6976 33.1449 18.736 33.2579 18.7522C33.3709 18.7683 33.4859 18.7618 33.5964 18.733C33.7069 18.7043 33.8107 18.6539 33.9019 18.5847C33.9931 18.5155 34.0699 18.4289 34.1279 18.3298C34.1859 18.2306 34.224 18.121 34.2399 18.007C34.2559 17.893 34.2495 17.777 34.221 17.6655L31.6186 7.16555Z" fill="#243CA8"/>
<path d="M20.181 38.3498C22.9049 42.2873 22.8832 44.0636 22.8658 45.7873C22.7357 58.3173 31.3453 62.1892 36.4591 62.4998C36.8494 62.5217 37.2268 62.5348 37.6041 62.5348C39.9689 62.5632 42.3127 62.0853 44.4808 61.1328C46.649 60.1804 48.5923 58.7749 50.1824 57.0092L53.0234 53.8505L53.0711 53.7936L54.4808 52.223C54.9798 51.7191 55.3351 51.0889 55.5092 50.3986C55.6833 49.7083 55.6697 48.9835 55.47 48.3003C55.2703 47.6171 54.8917 47.0009 54.3742 46.5163C53.8566 46.0318 53.2192 45.6968 52.529 45.5467C52.6644 45.0501 52.6915 44.5298 52.6083 44.0216C52.5251 43.5135 52.3336 43.0295 52.0471 42.6033C51.7605 42.177 51.3857 41.8184 50.9485 41.5524C50.5112 41.2864 50.022 41.1192 49.5145 41.0623C49.6555 40.6695 49.7288 40.2552 49.7314 39.8373C49.7337 38.9249 49.4219 38.04 48.8491 37.3338C48.2764 36.6276 47.4782 36.1439 46.5911 35.9655L51.2971 31.2011C51.6664 30.8299 51.9586 30.3882 52.1567 29.9018C52.3549 29.4155 52.455 28.8942 52.4512 28.3684C52.4475 27.8425 52.3399 27.3228 52.1348 26.8393C51.9298 26.3559 51.6313 25.9185 51.2568 25.5527C50.8823 25.1869 50.4394 24.9 49.9538 24.7087C49.4682 24.5174 48.9497 24.4257 48.4285 24.4387C47.9074 24.4518 47.3941 24.5694 46.9185 24.7848C46.4429 25.0001 46.0146 25.3089 45.6586 25.693C40.5015 31.2448 34.0909 37.5623 31.5622 38.5992C30.0875 39.2117 29.7318 38.7348 28.5911 36.8492C27.7989 35.3719 26.7465 34.0525 25.4856 32.9555C23.9849 31.7261 22.2196 31.6911 20.7579 32.8592C19.1053 34.1761 18.8668 36.4423 20.181 38.3498ZM51.6918 47.2136C51.9796 47.2125 52.2647 47.2692 52.5306 47.3803C52.7964 47.4915 53.0377 47.6549 53.2403 47.8611C53.4447 48.0701 53.6062 48.3177 53.7154 48.5899C53.8245 48.862 53.8793 49.1533 53.8765 49.4468C53.8736 49.7404 53.8133 50.0305 53.6989 50.3005C53.5845 50.5704 53.4183 50.8149 53.2099 51.0198L51.835 52.5467C51.4667 52.7221 51.0541 52.7797 50.6524 52.7117C50.2508 52.6436 49.8795 52.4532 49.5882 52.1661L49.5102 52.083C49.1554 51.7321 48.9423 51.261 48.9118 50.7609C48.8814 50.2607 49.0358 49.7669 49.3453 49.3748L51.514 47.1873L51.6918 47.2136ZM50.3906 43.3023C50.7118 43.6236 50.901 44.0553 50.9203 44.5111C50.9396 44.967 50.7876 45.4134 50.4947 45.7611C50.4585 45.7946 50.4251 45.8312 50.395 45.8705L47.9053 48.3817C47.5537 48.5114 47.1732 48.5392 46.8067 48.4619C46.4403 48.3845 46.1026 48.2052 45.8321 47.9442L45.728 47.8392C45.3866 47.4816 45.1859 47.0108 45.1636 46.5148C45.1412 46.0188 45.2987 45.5316 45.6065 45.1442C45.9535 44.873 47.4065 43.7136 48.1786 43.0442C48.5221 42.8344 48.9252 42.7458 49.3241 42.7926C49.7231 42.8393 50.0952 43.0187 50.382 43.3023H50.3906ZM47.3545 38.2667C47.5589 38.4711 47.7209 38.7144 47.8311 38.9826C47.9413 39.2507 47.9975 39.5383 47.9964 39.8286C47.9398 40.5393 47.6135 41.2007 47.0856 41.6748C46.5564 42.1386 45.4157 43.0617 44.5743 43.7267C44.2155 43.83 43.8358 43.8342 43.4748 43.7387C43.1139 43.6433 42.7851 43.4518 42.5227 43.1842L42.4663 43.1273C42.0714 42.7287 41.8496 42.1881 41.8496 41.6245C41.8496 41.0609 42.0714 40.5204 42.4663 40.1217L44.5049 38.0655C44.9226 37.7458 45.441 37.5896 45.9641 37.6258C46.4872 37.662 46.9796 37.8881 47.3502 38.2623L47.3545 38.2667ZM21.8379 34.2111C22.6706 33.5461 23.5077 33.5723 24.3926 34.2942C25.4966 35.2652 26.4165 36.4304 27.1077 37.733C27.5102 38.4924 28.0152 39.1918 28.6085 39.8111C28.6247 39.8353 28.642 39.8587 28.6605 39.8811C28.7343 39.9598 30.3955 41.793 28.7039 44.4573C28.5899 44.6527 28.5555 44.8849 28.6079 45.1053C28.6604 45.3257 28.7955 45.517 28.9849 45.6389C29.1743 45.7607 29.4032 45.8038 29.6235 45.7588C29.8437 45.7139 30.038 45.5845 30.1656 45.398C30.6443 44.7058 30.9642 43.9148 31.1022 43.0824C31.2403 42.25 31.1929 41.3971 30.9637 40.5855C31.3933 40.5262 31.8133 40.41 32.2128 40.2398C35.6263 38.8267 43.6287 30.4486 46.9164 26.9092C47.1161 26.692 47.3575 26.5179 47.6259 26.3976C47.8943 26.2772 48.1842 26.2132 48.4779 26.2092C48.772 26.2046 49.064 26.2595 49.3367 26.3707C49.6093 26.4819 49.8571 26.6472 50.0653 26.8567C50.2693 27.0619 50.4311 27.3057 50.5415 27.5741C50.6518 27.8425 50.7087 28.1302 50.7087 28.4208C50.7087 28.7114 50.6518 28.9991 50.5415 29.2675C50.4311 29.5358 50.2693 29.7796 50.0653 29.9848L41.2345 38.8748C40.8757 39.235 40.591 39.6632 40.3967 40.1347C40.2024 40.6062 40.1024 41.1117 40.1024 41.6223C40.1024 42.1329 40.2024 42.6385 40.3967 43.11C40.591 43.5815 40.8757 44.0097 41.2345 44.3698L41.2822 44.418C41.8796 45.0222 42.6594 45.4085 43.4986 45.5161C43.3474 46.1475 43.3588 46.8074 43.5319 47.4331C43.705 48.0587 44.034 48.6293 44.4875 49.0905L44.5222 49.1211L44.5569 49.1561C45.2606 49.8595 46.212 50.2528 47.2027 50.2498C47.1434 50.809 47.2093 51.3744 47.3955 51.9044C47.5816 52.4344 47.8833 52.9156 48.2783 53.3123L48.3434 53.3867C48.8452 53.8917 49.4782 54.2435 50.1694 54.4017L48.8682 55.8498L48.8335 55.8892C47.2805 57.5757 45.3713 58.8882 43.2473 59.7295C41.1233 60.5709 38.8389 60.9196 36.5632 60.7498C34.3282 60.5544 32.1763 59.8027 30.3 58.5623C30.4345 58.5623 30.5733 58.5623 30.7121 58.5623H31.0808C33.2494 58.4223 35.2316 57.0967 37.0012 54.6248C37.129 54.4361 37.1784 54.2044 37.1389 53.9793C37.0995 53.7542 36.9743 53.5537 36.7901 53.4205C36.606 53.2873 36.3775 53.2321 36.1535 53.2667C35.9295 53.3013 35.7279 53.4229 35.5916 53.6055C34.1473 55.6355 32.5988 56.7205 30.9853 56.8298C28.7343 56.9786 27.0037 55.163 26.9776 55.1367C26.9393 55.0963 26.8971 55.0597 26.8518 55.0273C25.4943 52.8661 24.5617 49.8998 24.6051 45.8005C24.6311 43.4861 24.4229 41.3948 21.608 37.3348C20.953 36.4073 20.7752 35.0686 21.8379 34.2111Z" fill="#243CA8"/>
<path d="M35.3444 24.3398L33.4272 24.6198L34.8152 25.9848L34.4856 27.9098L36.1988 26.9998L37.9121 27.9098L37.5824 25.9848L38.9704 24.6198L37.0533 24.3398L36.1988 22.5898L35.3444 24.3398Z" fill="#243CA8"/>
<path d="M38.1336 13.8195L38.7191 15.1495L39.4131 13.8677L40.8488 13.7189L39.8555 12.6602L40.1591 11.2339L38.8536 11.8595L37.6001 11.1289L37.7866 12.577L36.7109 13.5527L38.1336 13.8195Z" fill="#243CA8"/>
<path d="M26.5917 13.2323L25.5464 12.2305L25.3902 13.6786L24.1194 14.3742L25.4379 14.9692L25.7025 16.4042L26.6697 15.3192L28.1054 15.5117L27.3811 14.2473L28.0056 12.9348L26.5917 13.2323Z" fill="#243CA8"/>
</g>
<defs>
<clipPath id="clip0_51_3802">
<rect width="36" height="51.75" fill="white" transform="translate(19.5 11)"/>
</clipPath>
</defs>
</svg>
