<svg width="64" height="68" viewBox="0 0 64 68" fill="none" xmlns="http://www.w3.org/2000/svg">
<g clip-path="url(#clip0_523_2632)">
<path d="M62.9324 22.4008H55.1376C54.7273 10.0094 44.5546 0 31.9999 0H31.9166C19.4456 0.0833313 9.26881 10.0094 8.94224 22.4008H1.14737C0.737115 22.4008 0.410189 22.7277 0.410189 23.138V27.5675C0.410189 27.9777 0.737115 28.3046 1.14737 28.3046H8.94224V31.013C8.94224 31.4232 9.26917 31.7502 9.67942 31.7502H10.9102V51.9364H9.67942C9.26917 51.9364 8.94224 52.2634 8.94224 52.6736V55.382H7.21785C6.8076 55.382 6.48067 55.7089 6.48067 56.1191V59.8948H1.14734C0.737082 59.8948 0.410156 60.2217 0.410156 60.632V65.0614C0.410156 65.4717 0.737082 65.7986 1.14734 65.7986H62.9328C63.343 65.7986 63.67 65.4717 63.67 65.0614V60.632C63.67 60.2217 63.343 59.8948 62.9328 59.8948H57.5994V56.1191C57.5994 55.7089 57.2725 55.382 56.8623 55.382H55.1379V52.6736C55.1379 52.2634 54.8109 51.9364 54.4007 51.9364H53.1699V31.6739H54.4007C54.8109 31.6739 55.1379 31.3469 55.1379 30.9367V28.2283H62.9327C63.343 28.2283 63.6699 27.9014 63.6699 27.4912V23.0617C63.5898 22.7284 63.2626 22.4008 62.9324 22.4008ZM53.6598 22.4008H43.8974C43.7339 13.1282 40.9422 5.49662 36.8396 1.97169C46.2755 4.18642 53.3333 12.4718 53.6598 22.4008ZM32.7368 1.47774C38.0701 2.29826 42.3359 11.2402 42.4992 22.4008H32.7368V1.47774ZM31.2624 1.47774V22.4008H21.4162C21.5797 11.2402 25.8457 2.21456 31.2624 1.47774ZM26.9932 2.05146C22.974 5.58032 20.1022 13.2121 20.0188 22.401H10.3392C10.6661 12.4712 17.6405 4.26603 26.9932 2.05146ZM10.2563 30.2755V28.3075H17.2307V30.2755H10.2563ZM46.0323 31.6729H47.2631V51.8591H46.0323C45.6221 51.8591 45.2952 52.1861 45.2952 52.5963V55.3047H37.8272V48.1669C37.8272 46.6092 37.1701 45.1316 36.1028 44.0643C35.9393 43.9008 35.7759 43.7374 35.6092 43.654C36.0195 43.1605 36.4297 42.6701 36.6765 42.1765C36.9233 41.6829 37.0035 41.1091 37.0035 40.9457C37.1669 39.8784 36.9201 38.8944 36.4297 38.2373C36.4297 38.2373 35.6926 37.3335 34.4618 37.2534C33.5579 37.1701 32.6573 37.6636 32.0003 38.4842C31.3432 37.6636 30.4426 37.17 29.5387 37.2534C28.308 37.3367 27.5708 38.2373 27.5708 38.2373C27.0772 38.8944 26.8336 39.8784 26.9971 40.9457C26.9971 41.1092 27.0804 41.6027 27.324 42.1765C27.5708 42.67 27.9811 43.1604 28.3914 43.654C26.9971 44.7214 26.1766 46.3624 26.1766 48.1669V55.3047H18.7086V52.5963C18.7086 52.1861 18.3817 51.8591 17.9715 51.8591H16.7407L16.7375 31.6729H17.9683C18.3785 31.6729 18.7054 31.346 18.7054 30.9357V28.2273H45.2884V30.9357C45.2916 31.4261 45.6221 31.6729 46.0323 31.6729ZM29.4555 44.6345C30.3594 45.3717 31.1799 45.9487 31.5902 46.1922C31.6735 46.2755 31.837 46.2755 32.0004 46.2755C32.1639 46.2755 32.2472 46.2755 32.4107 46.1922C32.8209 45.9454 33.6415 45.3717 34.5453 44.6345C34.7088 44.798 34.9556 44.8813 35.119 45.0448C35.9396 45.8653 36.4332 47.0127 36.4332 48.1634V55.3012H27.6512V48.1634C27.6512 46.7692 28.3081 45.455 29.4555 44.6345ZM28.635 41.5993C28.4715 41.2724 28.3882 40.8621 28.3882 40.7788C28.3049 40.1217 28.3882 39.548 28.7151 39.1377C28.7151 39.1377 29.1254 38.7275 29.619 38.6442H29.7023C30.2761 38.6442 31.0966 39.2179 31.3434 40.2852C31.5068 40.9422 32.5741 40.9422 32.7376 40.2852C33.0645 39.2179 33.8049 38.6442 34.462 38.6442C34.9556 38.6442 35.3659 39.1377 35.3659 39.1377C35.6928 39.548 35.7761 40.1217 35.6928 40.7788C35.6928 40.8621 35.6095 41.189 35.446 41.5993C34.9524 42.6666 33.3947 43.8974 32.0806 44.798C31.4235 44.3044 30.6864 43.814 30.0293 43.2403C29.3754 42.6666 28.8818 42.0929 28.635 41.5993ZM15.3435 31.6727V51.859H12.2249V31.6727H15.3435ZM10.257 53.3326H17.2314V55.3005H10.257V53.3326ZM62.1963 61.2108V64.2461H1.8049V61.2108H62.1963ZM56.1226 56.7782V59.8134H7.87891V56.7782H56.1226ZM53.7444 53.3327V55.3006H46.7701V53.3327H53.7444ZM48.6579 51.9385V31.6726H51.7765V51.8589L48.6579 51.8557V51.9385ZM53.7444 30.2753H46.7701V28.3074H53.7444V30.2753ZM62.1965 26.9131H1.88884V23.8778H62.2802L62.277 26.9131H62.1965Z" fill="#1E328B"/>
</g>
<defs>
<clipPath id="clip0_523_2632">
<rect width="64" height="67.2821" fill="white"/>
</clipPath>
</defs>
</svg>
