<svg width="64" height="63" viewBox="0 0 64 63" fill="none" xmlns="http://www.w3.org/2000/svg">
<g clip-path="url(#clip0_523_2665)">
<path d="M63.3589 21.95C63.5308 21.95 63.6933 21.8844 63.812 21.7625C63.9308 21.6438 63.9995 21.4813 63.9995 21.3094V18.5781C63.9995 18.4062 63.9308 18.2437 63.812 18.125C63.6933 18.0031 63.5308 17.9375 63.3589 17.9375H46.0901V16.1968H47.3588C47.5307 16.1968 47.6932 16.1281 47.812 16.0093C47.9307 15.8875 47.9995 15.725 47.9995 15.5562V12.8218C47.9995 12.6531 47.9307 12.4906 47.812 12.3718C47.6932 12.2499 47.5307 12.1843 47.3588 12.1843H47.0807L46.2807 9.73742L48.7432 7.95614L48.7463 7.95301C48.9713 7.79052 49.0651 7.50301 48.9775 7.23739C48.8932 6.97489 48.6463 6.79676 48.3713 6.79676L45.3307 6.80301L44.39 3.90925C44.3056 3.64363 44.0588 3.4655 43.7806 3.4655C43.5056 3.4655 43.2588 3.64363 43.1744 3.90925L42.24 6.79989L39.1994 6.79365C38.9212 6.79365 38.6775 6.97489 38.59 7.2374C38.5056 7.50302 38.5994 7.79052 38.8244 7.95302L41.2868 9.7343L40.4868 12.1812H23.5116L22.7116 9.7343L25.1741 7.95302C25.3991 7.79052 25.4929 7.50302 25.4085 7.2374C25.3241 6.9749 25.0772 6.79365 24.7991 6.79365L21.7585 6.79989L20.8241 3.90925C20.7397 3.64363 20.4928 3.4655 20.2178 3.4655C19.9397 3.4655 19.6928 3.64363 19.6085 3.90925L18.6741 6.79989L15.6334 6.79365C15.3553 6.79365 15.1115 6.97177 15.024 7.2374C14.9397 7.49989 15.0334 7.79052 15.2584 7.95302L17.7209 9.7343L16.9209 12.1812H16.6396C16.2865 12.1812 15.999 12.4687 15.999 12.8218V15.5562C15.999 15.9093 16.2865 16.1937 16.6396 16.1937H17.9052V17.9344L0.639647 17.9375C0.286519 17.9375 -0.000976562 18.2219 -0.000976562 18.575V21.3094C-0.000976562 21.6625 0.286527 21.95 0.639647 21.95H2.15837V58.0716H0.639647C0.286519 58.0716 -0.000976562 58.3591 -0.000976562 58.7122V61.4435C-0.000976562 61.7966 0.286527 62.0841 0.639647 62.0841H63.358C63.5299 62.0841 63.6924 62.0185 63.8112 61.8966C63.9299 61.7779 63.9987 61.6154 63.9987 61.4435V58.7122C63.9987 58.5435 63.9299 58.3778 63.8112 58.2591C63.6924 58.1403 63.5299 58.0716 63.358 58.0716H61.8393V21.95L63.3589 21.95ZM62.7183 19.2187V20.6719H46.0903V19.2156L62.7183 19.2187ZM41.1807 8.08114H42.6994C42.9775 8.08114 43.2244 7.89989 43.3088 7.63739L43.7775 6.18739L44.2463 7.63739C44.3307 7.89988 44.5775 8.08114 44.8525 8.08114H46.3713L45.1368 8.9749L45.14 8.97177C44.9118 9.1374 44.8181 9.42802 44.9056 9.69365L45.3806 11.1405L44.1588 10.2405C43.9338 10.0749 43.6306 10.0749 43.4056 10.2405L42.1744 11.1374L42.6493 9.69053C42.7369 9.4249 42.6431 9.13428 42.415 8.96865L41.1807 8.08114ZM43.7838 11.5499L44.6525 12.1842H42.9119L43.7838 11.5499ZM17.615 8.08114H19.1368C19.4118 8.08114 19.6587 7.89989 19.7431 7.63739L20.2118 6.18739L20.6806 7.63739C20.765 7.89988 21.0118 8.08114 21.29 8.08114H22.8087L21.5743 8.9749V8.97177C21.3493 9.1374 21.2524 9.42802 21.343 9.69365L21.818 11.1405L20.5931 10.2405C20.3681 10.0749 20.065 10.0749 19.84 10.2405L18.6087 11.1374L19.0837 9.69053C19.1712 9.4249 19.0774 9.13428 18.8493 8.96865L17.615 8.08114ZM20.2181 11.5499L21.0868 12.1842H19.3462L20.2181 11.5499ZM17.2806 13.4623H46.7182V14.9155H17.2806V13.4623ZM44.8054 16.1967V58.0719H42.3992V47.4903C42.3992 47.3216 42.3304 47.1591 42.2117 47.0372C42.0929 46.9185 41.9304 46.8497 41.7585 46.8497H34.7336C34.3804 46.8497 34.0929 47.1372 34.0929 47.4903V58.0719H29.8711V47.4903C29.8711 47.3216 29.8024 47.1591 29.6836 47.0372C29.5617 46.9185 29.3992 46.8497 29.2305 46.8497H22.2398C21.8867 46.8497 21.5992 47.1372 21.5992 47.4903V58.0719H19.1898V16.1967L44.8054 16.1967ZM41.1179 58.0719H35.3741V48.1311H41.1179V58.0719ZM28.5899 58.0719H22.8805V48.1311H28.5899V58.0719ZM1.28028 19.2159H17.9083V20.6691H1.28028V19.2159ZM3.43964 21.9472H17.9116V58.072H3.43964V21.9472ZM62.718 60.8064H1.28044V59.3533H62.718V60.8064ZM60.5587 58.072H46.0899V21.9504H60.5587V58.072ZM9.62108 24.3064H4.73044C4.37731 24.3064 4.08982 24.5939 4.08982 24.947V32.6346C4.08982 32.9877 4.37732 33.2752 4.73044 33.2752H9.62108C9.78983 33.2752 9.95546 33.2064 10.0742 33.0877C10.193 32.9658 10.2617 32.8033 10.2617 32.6346V24.947C10.2617 24.7783 10.193 24.6158 10.0742 24.4939C9.95234 24.3752 9.78983 24.3064 9.62108 24.3064ZM5.37108 25.5877H6.53668V31.9939H5.37108V25.5877ZM8.98356 31.9939H7.81484V25.5877H8.98044L8.98356 31.9939ZM16.4554 24.3064H11.5616C11.2085 24.3064 10.9241 24.5939 10.9241 24.947V32.6346C10.9241 32.9877 11.2085 33.2752 11.5616 33.2752H16.4554C16.6242 33.2752 16.7866 33.2064 16.9054 33.0877C17.0273 32.9658 17.0929 32.8033 17.0929 32.6346V24.947C17.0929 24.5939 16.8085 24.3064 16.4554 24.3064ZM12.2054 25.5877H13.371V31.9939H12.2023L12.2054 25.5877ZM15.8179 31.9939H14.6492V25.5877H15.8148L15.8179 31.9939ZM9.62412 35.5283H4.73036C4.37723 35.5283 4.08974 35.8158 4.08974 36.169V43.8565C4.08974 44.2096 4.37724 44.494 4.73036 44.494H9.621C9.78975 44.494 9.95538 44.4284 10.0741 44.3065C10.1929 44.1877 10.2616 44.0252 10.2616 43.8565V36.169C10.2616 35.9971 10.1929 35.8346 10.0741 35.7158C9.95226 35.594 9.78975 35.5283 9.621 35.5283L9.62412 35.5283ZM5.37412 36.8096H6.5366V43.2159H5.371L5.37412 36.8096ZM8.9866 43.2159H7.81476V36.8065H8.98036L8.9866 43.2159ZM16.4584 35.5283H11.5616C11.2084 35.5283 10.9241 35.8158 10.9241 36.169V43.8565C10.9241 44.2096 11.2084 44.494 11.5616 44.494H16.4553C16.6241 44.494 16.7866 44.4284 16.9053 44.3065C17.0272 44.1877 17.0928 44.0252 17.0928 43.8565V36.169C17.0928 35.9971 17.0272 35.8346 16.9053 35.7158C16.7866 35.594 16.6241 35.5283 16.4553 35.5283L16.4584 35.5283ZM12.2084 36.8096H13.374V43.2159H12.2022L12.2084 36.8096ZM15.8209 43.2159H14.6491V36.8065H15.8147L15.8209 43.2159ZM9.62716 46.7503H4.73028C4.37715 46.7503 4.08966 47.0346 4.08966 47.3878V55.0753C4.08966 55.4284 4.37716 55.7159 4.73028 55.7159H9.62092C9.78967 55.7159 9.9553 55.6503 10.074 55.5284C10.1928 55.4096 10.2616 55.2472 10.2616 55.0753V47.3878C10.2616 47.219 10.1928 47.0565 10.074 46.9346C9.95218 46.8159 9.78967 46.7471 9.62092 46.7471L9.62716 46.7503ZM5.37716 48.0315L6.53652 48.0284V54.4347L5.37092 54.4378L5.37716 48.0315ZM8.98964 54.4378H7.8146V48.0284H8.9802L8.98964 54.4378ZM16.4615 46.7503H11.5615C11.2084 46.7503 10.924 47.0346 10.924 47.3878V55.0753C10.924 55.4284 11.2084 55.7159 11.5615 55.7159H16.4552C16.624 55.7159 16.7865 55.6503 16.9052 55.5284C17.0271 55.4096 17.0927 55.2472 17.0927 55.0753V47.3878C17.0927 47.0346 16.8084 46.7471 16.4552 46.7471L16.4615 46.7503ZM12.2115 48.0315H13.3771V54.4378H12.202L12.2115 48.0315ZM15.824 54.4378H14.6489V48.0284H15.8145L15.824 54.4378ZM47.4552 33.2754H52.3458C52.5145 33.2754 52.677 33.2066 52.7989 33.0879C52.9177 32.966 52.9864 32.8035 52.9864 32.6347V24.9472C52.9864 24.7785 52.9177 24.616 52.7989 24.4941C52.6771 24.3753 52.5145 24.3066 52.3458 24.3066H47.4552C47.102 24.3066 46.8145 24.5941 46.8145 24.9472V32.6347C46.8145 32.8035 46.8802 32.966 47.002 33.0879C47.1208 33.2066 47.2833 33.2754 47.4552 33.2754ZM51.7052 31.9941H50.5396V25.5879H51.7052V31.9941ZM48.0927 25.5879H49.2583V31.9941H48.0927V25.5879ZM54.2864 33.2754H59.1771C59.3489 33.2754 59.5115 33.2066 59.6302 33.0879C59.7521 32.966 59.8177 32.8035 59.8177 32.6347V24.9472C59.8177 24.7785 59.7521 24.616 59.6302 24.4941C59.5115 24.3753 59.349 24.3066 59.1771 24.3066H54.2864C53.9333 24.3066 53.6489 24.5941 53.6489 24.9472V32.6347C53.6489 32.8035 53.7146 32.966 53.8364 33.0879C53.9552 33.2066 54.1177 33.2754 54.2864 33.2754ZM58.5364 31.9941H57.374V25.5879H58.5396L58.5364 31.9941ZM54.924 25.5879H56.0896V31.9941H54.9271L54.924 25.5879ZM47.4552 44.4943H52.3459C52.5146 44.4943 52.6771 44.4286 52.799 44.3068C52.9178 44.188 52.9865 44.0255 52.9865 43.8536V36.1692C52.9865 35.9974 52.9178 35.8349 52.799 35.7161C52.6771 35.5942 52.5146 35.5286 52.3459 35.5286H47.4552C47.1021 35.5286 46.8146 35.813 46.8146 36.1692V43.8567V43.8536C46.8146 44.2099 47.1021 44.4943 47.4552 44.4943ZM51.7052 43.213L50.5396 43.2161V36.8067H51.7052V43.213ZM48.0928 36.8067H49.2584V43.213L48.0928 43.2161V36.8067ZM54.2865 44.4943H59.1772C59.349 44.4943 59.5115 44.4286 59.6303 44.3068C59.7522 44.188 59.8178 44.0255 59.8178 43.8536V36.1692C59.8178 35.9974 59.7522 35.8349 59.6303 35.7161C59.5115 35.5942 59.349 35.5286 59.1772 35.5286H54.2865C53.9334 35.5286 53.649 35.813 53.649 36.1692V43.8567V43.8536C53.649 44.2099 53.9334 44.4943 54.2865 44.4943ZM58.5365 43.213L57.374 43.2161V36.8067H58.5396L58.5365 43.213ZM54.924 36.8067H56.0896V43.213L54.9272 43.2161L54.924 36.8067ZM47.4553 55.7163H52.346C52.5147 55.7163 52.6772 55.6476 52.7991 55.5288C52.9178 55.407 52.9866 55.2445 52.9866 55.0757V47.3882C52.9866 47.2194 52.9178 47.0569 52.7991 46.9351C52.6772 46.8163 52.5147 46.7476 52.346 46.7476H47.4553C47.1022 46.7476 46.8147 47.0351 46.8147 47.3882V55.0757C46.8147 55.2444 46.8803 55.4069 47.0022 55.5288C47.121 55.6476 47.2834 55.7163 47.4553 55.7163ZM51.7053 54.4351H50.5397V48.0288H51.7053V54.4351ZM48.0928 48.0288H49.2584V54.4351H48.0928V48.0288ZM54.2866 55.7163H59.1772C59.3491 55.7163 59.5116 55.6476 59.6304 55.5288C59.7522 55.407 59.8179 55.2445 59.8179 55.0757V47.3882C59.8179 47.2194 59.7522 47.0569 59.6304 46.9351C59.5116 46.8163 59.3491 46.7476 59.1772 46.7476H54.2866C53.9335 46.7476 53.6491 47.0351 53.6491 47.3882V55.0757C53.6491 55.2444 53.7147 55.4069 53.8366 55.5288C53.9554 55.6476 54.1178 55.7163 54.2866 55.7163ZM58.5366 54.4351H57.3741V48.0288H58.5397L58.5366 54.4351ZM54.9241 48.0288H56.0897V54.4351H54.9272L54.9241 48.0288ZM20.6401 25.2568V19.0006C20.6401 18.6475 20.9245 18.36 21.2807 18.36H25.5995C25.7682 18.36 25.9307 18.4287 26.0526 18.5475C26.1713 18.6693 26.2401 18.8318 26.2401 19.0006V25.2568C26.2401 25.6131 25.9526 25.8975 25.5995 25.8975C25.2464 25.8975 24.9588 25.6131 24.9588 25.2568V19.6412H21.9182V25.2599V25.2568C21.9182 25.6131 21.6338 25.8974 21.2807 25.8974C20.9245 25.8974 20.6401 25.6131 20.6401 25.2568ZM29.1993 25.2568V19.0006C29.1993 18.6475 29.4868 18.36 29.8399 18.36H34.1587C34.3305 18.36 34.493 18.4287 34.6118 18.5475C34.7305 18.6693 34.7993 18.8318 34.7993 19.0006V25.2568C34.7993 25.6131 34.5118 25.8975 34.1587 25.8975C33.8055 25.8975 33.518 25.6131 33.518 25.2568V19.6412H30.4805V25.2599V25.2568C30.4805 25.6131 30.193 25.8974 29.8399 25.8974C29.4868 25.8974 29.1993 25.6131 29.1993 25.2568ZM37.7585 25.2568V19.0006C37.7585 18.6475 38.046 18.36 38.3991 18.36H42.7179C42.8897 18.36 43.0522 18.4287 43.171 18.5475C43.2929 18.6693 43.3585 18.8318 43.3585 19.0006V25.2568C43.3585 25.6131 43.0741 25.8975 42.7179 25.8975C42.3647 25.8975 42.0804 25.6131 42.0804 25.2568V19.6412H39.0397V25.2599V25.2568C39.0397 25.6131 38.7522 25.8974 38.3991 25.8974C38.046 25.8974 37.7585 25.6131 37.7585 25.2568ZM20.6401 34.1848V27.9286C20.6401 27.5755 20.9245 27.288 21.2807 27.288H25.5995C25.7682 27.288 25.9307 27.3567 26.0526 27.4755C26.1713 27.5973 26.2401 27.7598 26.2401 27.9286V34.1848C26.2401 34.538 25.9526 34.8255 25.5995 34.8255C25.2464 34.8255 24.9588 34.5379 24.9588 34.1848V28.5692H21.9182V34.1879V34.1848C21.9182 34.5379 21.6338 34.8254 21.2807 34.8254C20.9245 34.8254 20.6401 34.5379 20.6401 34.1848ZM29.1993 34.1848V27.9286C29.1993 27.5755 29.4868 27.288 29.8399 27.288H34.1587C34.3305 27.288 34.493 27.3567 34.6118 27.4755C34.7305 27.5973 34.7993 27.7598 34.7993 27.9286V34.1848C34.7993 34.538 34.5118 34.8255 34.1587 34.8255C33.8055 34.8255 33.518 34.5379 33.518 34.1848V28.5692H30.4805V34.1879V34.1848C30.4805 34.5379 30.193 34.8254 29.8399 34.8254C29.4868 34.8254 29.1993 34.5379 29.1993 34.1848ZM37.7585 34.1848V27.9286C37.7585 27.5755 38.046 27.288 38.3991 27.288H42.7179C42.8897 27.288 43.0522 27.3567 43.171 27.4755C43.2929 27.5973 43.3585 27.7598 43.3585 27.9286V34.1848C43.3585 34.538 43.0741 34.8255 42.7179 34.8255C42.3647 34.8255 42.0804 34.5379 42.0804 34.1848V28.5692H39.0397V34.1879V34.1848C39.0397 34.5379 38.7522 34.8254 38.3991 34.8254C38.046 34.8254 37.7585 34.5379 37.7585 34.1848ZM20.6401 43.1128V36.8566C20.6401 36.5035 20.9245 36.216 21.2807 36.216H25.5995C25.7682 36.216 25.9307 36.2847 26.0526 36.4035C26.1713 36.5253 26.2401 36.6878 26.2401 36.8566V43.1128C26.2401 43.466 25.9526 43.7535 25.5995 43.7535C25.2464 43.7535 24.9588 43.4659 24.9588 43.1128V37.4972H21.9182V43.1159V43.1128C21.9182 43.466 21.6338 43.7534 21.2807 43.7534C20.9245 43.7534 20.6401 43.4659 20.6401 43.1128ZM29.1993 43.1128V36.8566C29.1993 36.5035 29.4868 36.216 29.8399 36.216H34.1587C34.3305 36.216 34.493 36.2847 34.6118 36.4035C34.7305 36.5253 34.7993 36.6878 34.7993 36.8566V43.1128C34.7993 43.466 34.5118 43.7535 34.1587 43.7535C33.8055 43.7535 33.518 43.4659 33.518 43.1128V37.4972H30.4805V43.1159V43.1128C30.4805 43.466 30.193 43.7534 29.8399 43.7534C29.4868 43.7534 29.1993 43.4659 29.1993 43.1128ZM37.7585 43.1128V36.8566C37.7585 36.5035 38.046 36.216 38.3991 36.216H42.7179C42.8897 36.216 43.0522 36.2847 43.171 36.4035C43.2929 36.5253 43.3585 36.6878 43.3585 36.8566V43.1128C43.3585 43.466 43.0741 43.7535 42.7179 43.7535C42.3647 43.7535 42.0804 43.4659 42.0804 43.1128V37.4972H39.0397V43.1159V43.1128C39.0397 43.466 38.7522 43.7534 38.3991 43.7534C38.046 43.7534 37.7585 43.4659 37.7585 43.1128ZM27.0401 4.80002L29.5026 6.5813L28.5588 9.47506C28.4745 9.73755 28.5682 10.0282 28.7901 10.1907C29.0151 10.3532 29.3213 10.3532 29.5463 10.1907L31.9995 8.40004L34.4557 10.1907C34.6776 10.3563 34.9838 10.3563 35.2088 10.1907C35.4338 10.0282 35.5276 9.74068 35.4401 9.47506L34.4963 6.58442L36.9588 4.80002C37.1838 4.63752 37.2775 4.34689 37.1932 4.08439C37.1088 3.8219 36.8619 3.64064 36.5838 3.64064L33.5432 3.64689L32.6088 0.756252H32.6119C32.5244 0.490628 32.2806 0.3125 32.0025 0.3125C31.7244 0.3125 31.4775 0.490628 31.3931 0.756252L30.4587 3.64689L27.4181 3.64064C27.14 3.64064 26.8931 3.81877 26.8056 4.08127C26.7212 4.34689 26.8151 4.63751 27.0401 4.80002ZM30.9214 4.92815H30.9183C31.1964 4.92815 31.4433 4.75002 31.5277 4.48439L31.9995 3.04063L32.4683 4.49063C32.5527 4.75313 32.7995 4.93126 33.0777 4.93126H34.5964L33.362 5.82502C33.137 5.99064 33.0401 6.28127 33.1276 6.54689L33.6026 7.99377L32.3713 7.09689C32.1463 6.93127 31.8432 6.93127 31.6182 7.09689L30.39 7.98753L30.865 6.54065C30.9525 6.27503 30.8588 5.98127 30.6307 5.81878L29.3963 4.92814L30.9214 4.92815Z" fill="#1E328B"/>
</g>
<defs>
<clipPath id="clip0_523_2665">
<rect width="64" height="62.4" fill="white"/>
</clipPath>
</defs>
</svg>
