<svg width="30" height="24" viewBox="0 0 30 24" fill="none" xmlns="http://www.w3.org/2000/svg">
<g clip-path="url(#clip0_98_6747)">
<path d="M15.4287 18.8574C14.2452 18.8574 13.2859 19.8167 13.2859 21.0003C13.2859 22.1839 14.2452 23.1431 15.4287 23.1431C16.6123 23.1431 17.5716 22.1839 17.5716 21.0003C17.5716 19.8167 16.6123 18.8574 15.4287 18.8574ZM15.4287 21.4289C15.1927 21.4289 15.0002 21.2363 15.0002 21.0003C15.0002 20.7642 15.1927 20.5717 15.4287 20.5717C15.6648 20.5717 15.8573 20.7642 15.8573 21.0003C15.8573 21.2363 15.6648 21.4289 15.4287 21.4289Z" fill="black"/>
<path d="M15.4286 6.72795C11.7388 6.72795 8.27185 8.22294 5.66999 10.9316C5.34354 11.2748 5.35359 11.8139 5.6951 12.1437C6.03829 12.4701 6.57736 12.4601 6.90715 12.1186C9.18226 9.74467 12.2124 8.44224 15.4319 8.44224C18.6512 8.44224 21.6761 9.74973 23.9566 12.1186C24.124 12.2944 24.3517 12.3797 24.5743 12.3797C24.7886 12.3797 25.0029 12.2977 25.1653 12.1403C25.5085 11.8105 25.5168 11.2698 25.1904 10.9283C22.5855 8.21625 19.1218 6.72461 15.4318 6.72461L15.4286 6.72795Z" fill="black"/>
<path d="M29.7605 6.17571C25.9335 2.19467 20.8458 0 15.4287 0C10.0115 0 4.92353 2.19476 1.09682 6.17571C0.767018 6.51891 0.780411 7.05797 1.12193 7.38776C1.46512 7.71756 2.00419 7.70416 2.33397 7.36265C5.83621 3.71979 10.4854 1.71407 15.4273 1.71407C20.3691 1.71407 25.0234 3.71966 28.5205 7.36265C28.688 7.53843 28.9156 7.6238 29.1383 7.6238C29.3526 7.6238 29.5669 7.54177 29.7343 7.38441C30.0774 7.05461 30.0858 6.51389 29.7594 6.17237L29.7605 6.17571Z" fill="black"/>
<path d="M15.4287 13.4565C13.47 13.4565 11.6268 14.25 10.2421 15.6897C9.91228 16.0329 9.92567 16.572 10.2672 16.9018C10.6104 17.2316 11.1494 17.2182 11.4792 16.8766C12.5373 15.7751 13.9385 15.1707 15.4301 15.1707C16.9218 15.1707 18.323 15.7801 19.3811 16.8766C19.5485 17.0524 19.7762 17.1378 19.9988 17.1378C20.2131 17.1378 20.4274 17.0558 20.5948 16.8984C20.938 16.5686 20.9463 16.0279 20.6199 15.6864C19.2354 14.2466 17.3922 13.4531 15.4333 13.4531L15.4287 13.4565Z" fill="black"/>
</g>
<defs>
<clipPath id="clip0_98_6747">
<rect width="29.1429" height="24" fill="white" transform="translate(0.857178)"/>
</clipPath>
</defs>
</svg>
