<svg width="127" height="64" viewBox="0 0 127 64" fill="none" xmlns="http://www.w3.org/2000/svg">
<mask id="mask0_31_1276" style="mask-type:luminance" maskUnits="userSpaceOnUse" x="0" y="0" width="127" height="64">
<path d="M106.291 0H20.4899C9.17362 0 0 9.16921 0 20.48V43.52C0 54.8308 9.17362 64 20.4899 64H106.291C117.607 64 126.781 54.8308 126.781 43.52V20.48C126.781 9.16921 117.607 0 106.291 0Z" fill="white"/>
</mask>
<g mask="url(#mask0_31_1276)">
<mask id="mask1_31_1276" style="mask-type:luminance" maskUnits="userSpaceOnUse" x="0" y="-34" width="127" height="130">
<path d="M0 -33.918H126.781V95.8009H0V-33.918Z" fill="white"/>
</mask>
<g mask="url(#mask1_31_1276)">
<path d="M16.8696 13.1758L23.886 33.5321H24.163L31.1795 13.1758H34.1798L25.5016 37.3578H22.5474L13.8691 13.1758H16.8696Z" fill="#1E328B"/>
<path d="M43.2735 37.7369C41.5656 37.7369 40.0922 37.3513 38.8536 36.5798C37.6227 35.8004 36.6725 34.7142 36.0032 33.3208C35.3415 31.9197 35.0107 30.2903 35.0107 28.4325C35.0107 26.5748 35.3415 24.9374 36.0032 23.5205C36.6725 22.0957 37.6033 20.9858 38.7959 20.1908C39.9961 19.3879 41.3963 18.9863 42.9965 18.9863C43.9197 18.9863 44.8314 19.1438 45.7315 19.4586C46.6317 19.7735 47.451 20.2851 48.1897 20.9936C48.9282 21.6943 49.5168 22.6231 49.9553 23.7803C50.3938 24.9374 50.6131 26.3622 50.6131 28.0546V29.2354H36.9495V26.8266H47.8434C47.8434 25.8034 47.6434 24.8902 47.2433 24.0873C46.8509 23.2843 46.2894 22.6507 45.5584 22.1862C44.8352 21.7218 43.9813 21.4896 42.9965 21.4896C41.9117 21.4896 40.9732 21.7651 40.1807 22.3161C39.396 22.8592 38.792 23.5677 38.3689 24.4416C37.9458 25.3153 37.7342 26.252 37.7342 27.2517V28.8576C37.7342 30.2273 37.965 31.3884 38.4267 32.3408C38.8959 33.2855 39.546 34.0057 40.3769 34.5016C41.2078 34.9897 42.1734 35.2336 43.2735 35.2336C43.989 35.2336 44.6352 35.1314 45.2123 34.9267C45.797 34.7142 46.3009 34.3993 46.724 33.982C47.1471 33.557 47.4741 33.0296 47.705 32.3998L50.3361 33.1555C50.0591 34.0687 49.5936 34.8716 48.9397 35.5642C48.2857 36.2492 47.4779 36.7845 46.5163 37.1701C45.5546 37.548 44.4737 37.7369 43.2735 37.7369Z" fill="#1E328B"/>
<path d="M57.4793 26.4489V37.3591H54.7559V19.2225H57.387V22.0564H57.6178C58.0332 21.1353 58.6642 20.3954 59.5104 19.8365C60.3566 19.2697 61.4491 18.9863 62.7878 18.9863C63.9879 18.9863 65.0382 19.2382 65.9383 19.742C66.8385 20.2379 67.5386 20.9936 68.0387 22.0092C68.5387 23.0167 68.7887 24.2919 68.7887 25.8348V37.3591H66.0652V26.0238C66.0652 24.5989 65.7036 23.489 64.9804 22.694C64.2573 21.891 63.2648 21.4896 62.0031 21.4896C61.1337 21.4896 60.3566 21.6824 59.672 22.0682C58.995 22.4538 58.4602 23.0167 58.0679 23.7566C57.6755 24.4966 57.4793 25.394 57.4793 26.4489Z" fill="#1E328B"/>
<path d="M84.9366 29.9441V19.2227H87.66V37.3592H84.9366V34.2893H84.7519C84.3365 35.2102 83.6901 35.9935 82.8132 36.639C81.9361 37.2765 80.8282 37.5954 79.4896 37.5954C78.3817 37.5954 77.3969 37.3475 76.5352 36.8515C75.6736 36.3476 74.9966 35.5921 74.5042 34.5844C74.0118 33.569 73.7656 32.2898 73.7656 30.747V19.2227H76.4891V30.5581C76.4891 31.8804 76.8508 32.9353 77.5739 33.7225C78.3048 34.5097 79.2356 34.9033 80.3666 34.9033C81.0436 34.9033 81.7322 34.7261 82.4323 34.3718C83.1401 34.0177 83.7325 33.4746 84.2096 32.7424C84.6941 32.0104 84.9366 31.0775 84.9366 29.9441Z" fill="#1E328B"/>
<path d="M97.8645 37.7842C96.7411 37.7842 95.7217 37.5677 94.8062 37.1347C93.8907 36.6938 93.1637 36.0602 92.6252 35.2336C92.0866 34.3993 91.8174 33.3917 91.8174 32.2109C91.8174 31.1718 92.0174 30.3296 92.4175 29.6841C92.8175 29.0307 93.3522 28.5191 94.0216 28.1491C94.6908 27.7792 95.4294 27.5036 96.2373 27.3226C97.0528 27.1337 97.8721 26.984 98.6953 26.8738C99.7724 26.7322 100.646 26.6259 101.315 26.5551C101.992 26.4764 102.484 26.3465 102.792 26.1655C103.108 25.9843 103.265 25.6695 103.265 25.2208V25.1264C103.265 23.9613 102.954 23.0561 102.33 22.4106C101.715 21.7651 100.78 21.4424 99.5262 21.4424C98.226 21.4424 97.2066 21.7336 96.4681 22.3161C95.7294 22.8986 95.2101 23.5205 94.9101 24.1817L92.3251 23.2371C92.7867 22.1351 93.4021 21.277 94.1715 20.663C94.9486 20.0412 95.7948 19.6083 96.7104 19.3642C97.6336 19.1123 98.5414 18.9863 99.4338 18.9863C100.003 18.9863 100.657 19.0572 101.396 19.1989C102.142 19.3327 102.861 19.6121 103.554 20.0372C104.254 20.4623 104.835 21.1038 105.296 21.9619C105.758 22.8199 105.989 23.9692 105.989 25.4098V37.3591H103.265V34.9031H103.127C102.942 35.2967 102.634 35.7178 102.204 36.1665C101.773 36.6151 101.2 36.997 100.484 37.3118C99.7686 37.6267 98.8953 37.7842 97.8645 37.7842ZM98.2799 35.281C99.357 35.281 100.265 35.0644 101.003 34.6315C101.75 34.1986 102.311 33.6396 102.688 32.9548C103.073 32.2699 103.265 31.5497 103.265 30.7941V28.2435C103.15 28.3852 102.896 28.5152 102.504 28.6332C102.119 28.7434 101.673 28.8418 101.165 28.9283C100.665 29.0071 100.176 29.078 99.6993 29.141C99.23 29.196 98.8491 29.2432 98.5569 29.2826C97.8491 29.3771 97.1874 29.5306 96.5719 29.7432C95.9641 29.9479 95.4718 30.2588 95.0947 30.6759C94.7255 31.0853 94.5409 31.6441 94.5409 32.3526C94.5409 33.3208 94.8909 34.053 95.591 34.5488C96.2988 35.0369 97.1951 35.281 98.2799 35.281Z" fill="#1E328B"/>
<path d="M118.669 19.2222V21.5838H109.482V19.2222H118.669ZM112.16 14.877H114.883V32.1634C114.883 32.9506 114.995 33.5409 115.218 33.9345C115.449 34.3203 115.741 34.58 116.095 34.7139C116.457 34.8398 116.838 34.9028 117.238 34.9028C117.538 34.9028 117.784 34.8871 117.976 34.8556C118.168 34.8162 118.322 34.7847 118.438 34.7611L118.992 37.2643C118.807 37.3352 118.549 37.406 118.218 37.4768C117.888 37.5555 117.468 37.5949 116.961 37.5949C116.191 37.5949 115.437 37.4257 114.699 37.0871C113.968 36.7487 113.36 36.2331 112.875 35.5404C112.398 34.8476 112.16 33.9739 112.16 32.9191V14.877Z" fill="#1E328B"/>
<path d="M31.3138 49.5708C31.2618 49.4082 31.1934 49.2627 31.1086 49.134C31.0253 49.0037 30.9254 48.8927 30.8091 48.801C30.6944 48.7093 30.5639 48.6393 30.4176 48.591C30.2715 48.5428 30.111 48.5187 29.9366 48.5187C29.6504 48.5187 29.3903 48.5944 29.1561 48.7455C28.9219 48.8967 28.7355 49.1196 28.5972 49.4138C28.4588 49.7082 28.3896 50.0693 28.3896 50.4972C28.3896 50.9251 28.4596 51.2862 28.5995 51.5805C28.7395 51.8749 28.9289 52.0977 29.1679 52.2489C29.4068 52.4001 29.6756 52.4757 29.9743 52.4757C30.251 52.4757 30.4947 52.4154 30.7054 52.2947C30.9176 52.1725 31.0826 52.0003 31.2006 51.7784C31.3201 51.5548 31.3797 51.2918 31.3797 50.9894L31.559 51.028H30.1064V50.4972H31.9458V51.028C31.9458 51.435 31.8609 51.7889 31.6911 52.0897C31.5228 52.3905 31.2901 52.6237 30.993 52.7893C30.6974 52.9534 30.3579 53.0355 29.9743 53.0355C29.5467 53.0355 29.1709 52.9326 28.8471 52.7266C28.5249 52.5208 28.2734 52.2279 28.0925 51.8484C27.9132 51.4687 27.8237 51.0183 27.8237 50.4972C27.8237 50.1063 27.8748 49.7548 27.977 49.4428C28.0807 49.1292 28.227 48.8622 28.4156 48.6417C28.6043 48.4215 28.8275 48.2525 29.0853 48.1351C29.3432 48.0177 29.6268 47.959 29.9366 47.959C30.1912 47.959 30.4286 47.9984 30.6488 48.0771C30.8704 48.1544 31.0677 48.2645 31.2407 48.4078C31.4151 48.5493 31.5606 48.7189 31.6768 48.9168C31.7933 49.113 31.8734 49.331 31.9175 49.5708H31.3138Z" fill="#1E328B"/>
<path d="M33.9378 53.054C33.7082 53.054 33.5 53.0098 33.3129 52.9213C33.1258 52.8312 32.9772 52.7018 32.8672 52.5328C32.7571 52.3623 32.7021 52.1565 32.7021 51.9152C32.7021 51.7029 32.743 51.5307 32.8247 51.3989C32.9065 51.2654 33.0158 51.1608 33.1525 51.0851C33.2893 51.0096 33.4402 50.9533 33.6052 50.9163C33.772 50.8777 33.9394 50.8471 34.1076 50.8245C34.3276 50.7956 34.5062 50.774 34.6429 50.7594C34.7812 50.7434 34.8819 50.7169 34.9448 50.6798C35.0092 50.6428 35.0414 50.5785 35.0414 50.4867V50.4675C35.0414 50.2295 34.9777 50.0445 34.8504 49.9125C34.7246 49.7807 34.5336 49.7146 34.2773 49.7146C34.0117 49.7146 33.8033 49.7742 33.6525 49.8932C33.5015 50.0122 33.3955 50.1394 33.3341 50.2745L32.8059 50.0815C32.9003 49.8562 33.026 49.681 33.1831 49.5554C33.3419 49.4284 33.515 49.34 33.7019 49.2901C33.8906 49.2386 34.0761 49.2129 34.2585 49.2129C34.3748 49.2129 34.5085 49.2274 34.6593 49.2563C34.8118 49.2837 34.9588 49.3408 35.1004 49.4275C35.2434 49.5145 35.3621 49.6455 35.4564 49.8209C35.5507 49.9962 35.5979 50.231 35.5979 50.5254V52.9671H35.0414V52.4652H35.0131C34.9754 52.5458 34.9125 52.6318 34.8244 52.7234C34.7364 52.8152 34.6192 52.8931 34.4731 52.9575C34.3269 53.0218 34.1485 53.054 33.9378 53.054ZM34.0227 52.5426C34.2427 52.5426 34.4283 52.4983 34.5791 52.4098C34.7317 52.3214 34.8464 52.2071 34.9235 52.0672C35.0021 51.9273 35.0414 51.7801 35.0414 51.6257V51.1045C35.0178 51.1334 34.9659 51.16 34.8857 51.1841C34.8071 51.2066 34.7159 51.2267 34.6122 51.2444C34.51 51.2605 34.4102 51.275 34.3128 51.2879C34.2169 51.2992 34.139 51.3088 34.0793 51.3168C33.9346 51.3362 33.7994 51.3675 33.6736 51.4109C33.5495 51.4528 33.4489 51.5163 33.3718 51.6015C33.2964 51.6852 33.2586 51.7994 33.2586 51.9442C33.2586 52.1419 33.3302 52.2915 33.4732 52.3929C33.6179 52.4926 33.801 52.5426 34.0227 52.5426Z" fill="#1E328B"/>
<path d="M38.1887 49.2629V49.7455H36.3115V49.2629H38.1887ZM36.8586 48.375H37.4152V51.9073C37.4152 52.0682 37.438 52.1888 37.4835 52.2693C37.5307 52.348 37.5905 52.4011 37.6627 52.4285C37.7366 52.4542 37.8145 52.467 37.8962 52.467C37.9575 52.467 38.0078 52.4638 38.0471 52.4574C38.0865 52.4494 38.1178 52.443 38.1414 52.4381L38.2546 52.9496C38.217 52.9641 38.1642 52.9785 38.0966 52.9931C38.0291 53.0091 37.9434 53.0172 37.8396 53.0172C37.6824 53.0172 37.5284 52.9826 37.3774 52.9134C37.2281 52.8442 37.1038 52.7389 37.0048 52.5973C36.9074 52.4558 36.8586 52.2772 36.8586 52.0618V48.375Z" fill="#1E328B"/>
<path d="M39.6601 50.7393V52.9687H39.1035V48.0273H39.6601V49.8417H39.7072C39.7921 49.6503 39.9195 49.4983 40.0892 49.3857C40.2606 49.2715 40.4885 49.2144 40.7731 49.2144C41.02 49.2144 41.2361 49.2651 41.4216 49.3664C41.6071 49.4661 41.7509 49.6198 41.8531 49.8273C41.9569 50.0331 42.0087 50.2953 42.0087 50.6138V52.9687H41.4523V50.6524C41.4523 50.3581 41.3776 50.1304 41.2282 49.9696C41.0804 49.8072 40.8752 49.7259 40.6127 49.7259C40.4304 49.7259 40.267 49.7653 40.1222 49.8442C39.9792 49.9229 39.866 50.038 39.7828 50.1891C39.7009 50.3403 39.6601 50.5237 39.6601 50.7393Z" fill="#1E328B"/>
<path d="M44.5458 53.0443C44.1968 53.0443 43.8957 52.9655 43.6427 52.8079C43.3912 52.6487 43.1969 52.4267 43.0601 52.1419C42.925 51.8557 42.8574 51.5226 42.8574 51.1431C42.8574 50.7635 42.925 50.4289 43.0601 50.1394C43.1969 49.8483 43.3872 49.6215 43.6309 49.4589C43.8762 49.2949 44.1622 49.2129 44.4892 49.2129C44.6778 49.2129 44.8641 49.245 45.048 49.3094C45.2321 49.3737 45.3994 49.4782 45.5504 49.623C45.7013 49.7662 45.8215 49.9561 45.9112 50.1925C46.0008 50.4289 46.0456 50.7201 46.0456 51.0658V51.3071H43.2535V50.8149H45.4796C45.4796 50.6058 45.4388 50.4193 45.3571 50.2552C45.2769 50.0911 45.1621 49.9616 45.0127 49.8667C44.8649 49.7719 44.6905 49.7244 44.4892 49.7244C44.2675 49.7244 44.0758 49.7807 43.9138 49.8932C43.7535 50.0042 43.6301 50.149 43.5436 50.3275C43.4571 50.5061 43.414 50.6976 43.414 50.9019V51.2299C43.414 51.5098 43.4611 51.747 43.5554 51.9417C43.6513 52.1347 43.7842 52.2819 43.9539 52.3832C44.1237 52.4829 44.321 52.5328 44.5458 52.5328C44.692 52.5328 44.8241 52.512 44.942 52.4701C45.0615 52.4267 45.1645 52.3623 45.2509 52.2771C45.3373 52.1902 45.4042 52.0824 45.4513 51.9538L45.989 52.1081C45.9324 52.2947 45.8373 52.4588 45.7037 52.6004C45.57 52.7403 45.4049 52.8498 45.2085 52.9285C45.0119 53.0058 44.791 53.0443 44.5458 53.0443Z" fill="#1E328B"/>
<path d="M46.8921 52.9671V49.2611H47.4298V49.8208H47.4675C47.5335 49.6374 47.653 49.4887 47.8259 49.3745C47.9989 49.2602 48.1938 49.2031 48.4108 49.2031C48.4516 49.2031 48.5027 49.204 48.5641 49.2056C48.6254 49.2072 48.6718 49.2097 48.7031 49.2129V49.7919C48.6843 49.7871 48.641 49.7798 48.5734 49.7702C48.5075 49.7589 48.4375 49.7533 48.3636 49.7533C48.1876 49.7533 48.0303 49.791 47.892 49.8667C47.7552 49.9407 47.6468 50.0436 47.5666 50.1755C47.488 50.3058 47.4486 50.4546 47.4486 50.6219V52.9671H46.8921Z" fill="#1E328B"/>
<path d="M52.0415 46.4336V54.5598H51.5698V46.4336H52.0415Z" fill="#1E328B"/>
<path d="M55.3462 52.9687V48.0273H58.2607V48.5582H55.9309V50.2278H58.1099V50.7586H55.9309V52.4378H58.2985V52.9687H55.3462Z" fill="#1E328B"/>
<path d="M59.7958 50.7378V52.9671H59.2393V49.2611H59.777V49.8402H59.8241C59.909 49.6519 60.0379 49.5008 60.2109 49.3866C60.3837 49.2707 60.607 49.2129 60.8805 49.2129C61.1257 49.2129 61.3404 49.2643 61.5243 49.3673C61.7083 49.4686 61.8513 49.623 61.9535 49.8305C62.0557 50.0364 62.1068 50.2971 62.1068 50.6123V52.9671H61.5503V50.6508C61.5503 50.3598 61.4764 50.133 61.3286 49.9705C61.1808 49.8064 60.978 49.7244 60.7202 49.7244C60.5425 49.7244 60.3837 49.7638 60.2439 49.8427C60.1055 49.9214 59.9962 50.0364 59.9161 50.1876C59.8359 50.3388 59.7958 50.5222 59.7958 50.7378Z" fill="#1E328B"/>
<path d="M64.5859 54.4341C64.3171 54.4341 64.086 54.3987 63.8927 54.3279C63.6993 54.2588 63.5381 54.1671 63.4092 54.0528C63.2818 53.9403 63.1805 53.8196 63.105 53.691L63.5483 53.3725C63.5986 53.4401 63.6623 53.5173 63.7394 53.6041C63.8163 53.6926 63.9217 53.7689 64.0553 53.8333C64.1905 53.8992 64.3674 53.9323 64.5859 53.9323C64.8784 53.9323 65.1196 53.8598 65.3099 53.7152C65.5001 53.5704 65.5952 53.3436 65.5952 53.0347V52.2819H65.548C65.5071 52.3494 65.449 52.4331 65.3736 52.5328C65.2997 52.631 65.1927 52.7187 65.0528 52.7959C64.9145 52.8714 64.7274 52.9093 64.4916 52.9093C64.1991 52.9093 63.9366 52.8385 63.704 52.6969C63.4729 52.5554 63.2898 52.3495 63.1545 52.0792C63.021 51.809 62.9541 51.4809 62.9541 51.0949C62.9541 50.7152 63.0193 50.3846 63.1498 50.1031C63.2803 49.8201 63.4619 49.6014 63.6946 49.4469C63.9272 49.2908 64.196 49.2129 64.501 49.2129C64.7368 49.2129 64.9239 49.2531 65.0623 49.3335C65.2022 49.4123 65.309 49.5024 65.3829 49.6037C65.4585 49.7034 65.5166 49.7854 65.5575 49.8498H65.6141V49.2611H66.1517V53.0732C66.1517 53.3918 66.081 53.6508 65.9395 53.8502C65.7995 54.0513 65.6109 54.1985 65.3736 54.2918C65.1377 54.3866 64.8752 54.4341 64.5859 54.4341ZM64.567 52.3978C64.7903 52.3978 64.9789 52.3454 65.1329 52.2409C65.287 52.1363 65.4042 51.9859 65.4843 51.7897C65.5645 51.5934 65.6046 51.3586 65.6046 51.0851C65.6046 50.8181 65.5653 50.5825 65.4868 50.3782C65.4081 50.1739 65.2917 50.0139 65.1377 49.8981C64.9836 49.7822 64.7935 49.7244 64.567 49.7244C64.3313 49.7244 64.1347 49.7854 63.9776 49.9077C63.8218 50.03 63.7048 50.194 63.6262 50.4C63.5491 50.6058 63.5107 50.8343 63.5107 51.0851C63.5107 51.3426 63.55 51.5701 63.6285 51.768C63.7086 51.9643 63.8266 52.1186 63.9822 52.2313C64.1394 52.3422 64.3344 52.3978 64.567 52.3978Z" fill="#1E328B"/>
<path d="M68.2362 53.054C68.0067 53.054 67.7983 53.0098 67.6113 52.9213C67.4242 52.8312 67.2757 52.7018 67.1656 52.5328C67.0556 52.3623 67.0005 52.1565 67.0005 51.9152C67.0005 51.7029 67.0415 51.5307 67.1232 51.3989C67.2049 51.2654 67.3141 51.1608 67.4509 51.0851C67.5877 51.0096 67.7386 50.9533 67.9037 50.9163C68.0703 50.8777 68.2378 50.8471 68.406 50.8245C68.6261 50.7956 68.8045 50.774 68.9413 50.7594C69.0796 50.7434 69.1802 50.7169 69.2431 50.6798C69.3075 50.6428 69.3398 50.5785 69.3398 50.4867V50.4675C69.3398 50.2295 69.2761 50.0445 69.1489 49.9125C69.023 49.7807 68.832 49.7146 68.5758 49.7146C68.31 49.7146 68.1018 49.7742 67.9508 49.8932C67.8 50.0122 67.6938 50.1394 67.6325 50.2745L67.1043 50.0815C67.1986 49.8562 67.3244 49.681 67.4816 49.5554C67.6404 49.4284 67.8133 49.34 68.0004 49.2901C68.189 49.2386 68.3746 49.2129 68.5569 49.2129C68.6732 49.2129 68.8069 49.2274 68.9578 49.2563C69.1103 49.2837 69.2573 49.3408 69.3987 49.4275C69.5419 49.5145 69.6605 49.6455 69.7548 49.8209C69.8491 49.9962 69.8963 50.231 69.8963 50.5254V52.9671H69.3398V52.4652H69.3115C69.2737 52.5458 69.2108 52.6318 69.1229 52.7234C69.0349 52.8152 68.9177 52.8931 68.7715 52.9575C68.6253 53.0218 68.4468 53.054 68.2362 53.054ZM68.3211 52.5426C68.5412 52.5426 68.7266 52.4983 68.8776 52.4098C69.0301 52.3214 69.1449 52.2071 69.2218 52.0672C69.3005 51.9273 69.3398 51.7801 69.3398 51.6257V51.1045C69.3162 51.1334 69.2644 51.16 69.1842 51.1841C69.1056 51.2066 69.0144 51.2267 68.9107 51.2444C68.8085 51.2605 68.7086 51.275 68.6111 51.2879C68.5152 51.2992 68.4375 51.3088 68.3777 51.3168C68.2331 51.3362 68.0978 51.3675 67.9721 51.4109C67.8479 51.4528 67.7472 51.5163 67.6702 51.6015C67.5948 51.6852 67.557 51.7994 67.557 51.9442C67.557 52.1419 67.6286 52.2915 67.7717 52.3929C67.9163 52.4926 68.0994 52.5426 68.3211 52.5426Z" fill="#1E328B"/>
<path d="M72.3739 54.4341C72.1051 54.4341 71.8741 54.3987 71.6808 54.3279C71.4874 54.2588 71.3261 54.1671 71.1973 54.0528C71.0699 53.9403 70.9686 53.8196 70.893 53.691L71.3364 53.3725C71.3867 53.4401 71.4504 53.5173 71.5275 53.6041C71.6044 53.6926 71.7098 53.7689 71.8434 53.8333C71.9786 53.8992 72.1555 53.9323 72.3739 53.9323C72.6664 53.9323 72.9077 53.8598 73.0979 53.7152C73.2882 53.5704 73.3833 53.3436 73.3833 53.0347V52.2819H73.3361C73.2952 52.3494 73.2371 52.4331 73.1617 52.5328C73.0878 52.631 72.9808 52.7187 72.8409 52.7959C72.7026 52.8714 72.5155 52.9093 72.2797 52.9093C71.9872 52.9093 71.7247 52.8385 71.4921 52.6969C71.261 52.5554 71.0778 52.3495 70.9426 52.0792C70.809 51.809 70.7422 51.4809 70.7422 51.0949C70.7422 50.7152 70.8074 50.3846 70.9379 50.1031C71.0684 49.8201 71.25 49.6014 71.4826 49.4469C71.7153 49.2908 71.9841 49.2129 72.289 49.2129C72.5249 49.2129 72.712 49.2531 72.8503 49.3335C72.9903 49.4123 73.0971 49.5024 73.171 49.6037C73.2466 49.7034 73.3047 49.7854 73.3456 49.8498H73.4022V49.2611H73.9398V53.0732C73.9398 53.3918 73.8691 53.6508 73.7276 53.8502C73.5876 54.0513 73.399 54.1985 73.1617 54.2918C72.9258 54.3866 72.6632 54.4341 72.3739 54.4341ZM72.3551 52.3978C72.5783 52.3978 72.767 52.3454 72.921 52.2409C73.0751 52.1363 73.1923 51.9859 73.2724 51.7897C73.3526 51.5934 73.3927 51.3586 73.3927 51.0851C73.3927 50.8181 73.3534 50.5825 73.2747 50.3782C73.1962 50.1739 73.0798 50.0139 72.9258 49.8981C72.7717 49.7822 72.5815 49.7244 72.3551 49.7244C72.1194 49.7244 71.9228 49.7854 71.7657 49.9077C71.6099 50.03 71.4929 50.194 71.4143 50.4C71.3372 50.6058 71.2987 50.8343 71.2987 51.0851C71.2987 51.3426 71.3379 51.5701 71.4166 51.768C71.4967 51.9643 71.6147 52.1186 71.7703 52.2313C71.9275 52.3422 72.1224 52.3978 72.3551 52.3978Z" fill="#1E328B"/>
<path d="M76.4771 53.0443C76.128 53.0443 75.827 52.9655 75.5738 52.8079C75.3223 52.6487 75.1282 52.4267 74.9914 52.1419C74.8562 51.8557 74.7886 51.5226 74.7886 51.1431C74.7886 50.7635 74.8562 50.4289 74.9914 50.1394C75.1282 49.8483 75.3184 49.6215 75.5621 49.4589C75.8073 49.2949 76.0934 49.2129 76.4205 49.2129C76.6091 49.2129 76.7954 49.245 76.9793 49.3094C77.1632 49.3737 77.3307 49.4782 77.4816 49.623C77.6326 49.7662 77.7528 49.9561 77.8425 50.1925C77.932 50.4289 77.9768 50.7201 77.9768 51.0658V51.3071H75.1848V50.8149H77.4109C77.4109 50.6058 77.37 50.4193 77.2882 50.2552C77.208 50.0911 77.0933 49.9616 76.944 49.8667C76.7962 49.7719 76.6216 49.7244 76.4205 49.7244C76.1988 49.7244 76.007 49.7807 75.8451 49.8932C75.6848 50.0042 75.5613 50.149 75.4749 50.3275C75.3884 50.5061 75.3451 50.6976 75.3451 50.9019V51.2299C75.3451 51.5098 75.3923 51.747 75.4866 51.9417C75.5826 52.1347 75.7154 52.2819 75.8852 52.3832C76.055 52.4829 76.2522 52.5328 76.4771 52.5328C76.6232 52.5328 76.7553 52.512 76.8732 52.4701C76.9926 52.4267 77.0956 52.3623 77.1822 52.2771C77.2686 52.1902 77.3355 52.0824 77.3826 51.9538L77.9202 52.1081C77.8636 52.2947 77.7686 52.4588 77.6349 52.6004C77.5013 52.7403 77.3362 52.8498 77.1397 52.9285C76.9432 53.0058 76.7223 53.0443 76.4771 53.0443Z" fill="#1E328B"/>
<path d="M81.5024 46.4336V54.5598H81.0308V46.4336H81.5024Z" fill="#1E328B"/>
<path d="M85.3914 48.0273V52.9687H84.8066V48.0273H85.3914Z" fill="#1E328B"/>
<path d="M87.0452 50.7378V52.9671H86.4888V49.2611H87.0264V49.8402H87.0735C87.1584 49.6519 87.2874 49.5008 87.4602 49.3866C87.6331 49.2707 87.8565 49.2129 88.13 49.2129C88.3752 49.2129 88.5899 49.2643 88.7738 49.3673C88.9577 49.4686 89.1007 49.623 89.2029 49.8305C89.3051 50.0364 89.3562 50.2971 89.3562 50.6123V52.9671H88.7996V50.6508C88.7996 50.3598 88.7257 50.133 88.578 49.9705C88.4302 49.8064 88.2275 49.7244 87.9697 49.7244C87.7919 49.7244 87.6332 49.7638 87.4933 49.8427C87.355 49.9214 87.2457 50.0364 87.1654 50.1876C87.0853 50.3388 87.0452 50.5222 87.0452 50.7378Z" fill="#1E328B"/>
<path d="M92.9389 50.0911L92.439 50.2359C92.4075 50.1506 92.3611 50.0678 92.2998 49.9873C92.2401 49.9054 92.1584 49.8378 92.0545 49.7847C91.9508 49.7315 91.818 49.705 91.656 49.705C91.4343 49.705 91.2497 49.7574 91.1019 49.8619C90.9556 49.9649 90.8825 50.096 90.8825 50.2552C90.8825 50.3968 90.9329 50.5085 91.0335 50.5906C91.1342 50.6726 91.2913 50.741 91.5052 50.7956L92.0428 50.9308C92.3666 51.0112 92.6079 51.1343 92.7667 51.2999C92.9255 51.464 93.0049 51.6755 93.0049 51.9344C93.0049 52.1468 92.9452 52.3366 92.8257 52.5039C92.7078 52.6712 92.5427 52.803 92.3305 52.8995C92.1182 52.9961 91.8714 53.0443 91.5901 53.0443C91.2206 53.0443 90.9148 52.9623 90.6728 52.7983C90.4306 52.6342 90.2773 52.3945 90.2129 52.0792L90.7411 51.9442C90.7915 52.1436 90.8865 52.2932 91.0265 52.3929C91.168 52.4926 91.3526 52.5426 91.5806 52.5426C91.84 52.5426 92.046 52.4862 92.1985 52.3736C92.3525 52.2594 92.4295 52.1227 92.4295 51.9635C92.4295 51.8347 92.3855 51.7269 92.2975 51.6402C92.2095 51.5516 92.0743 51.4857 91.8919 51.4423L91.2882 51.2975C90.9565 51.2171 90.7128 51.0924 90.5571 50.9235C90.4031 50.753 90.3261 50.5399 90.3261 50.2841C90.3261 50.075 90.3835 49.89 90.4982 49.7292C90.6145 49.5683 90.7725 49.442 90.9722 49.3504C91.1735 49.2587 91.4014 49.2129 91.656 49.2129C92.0145 49.2129 92.2959 49.2933 92.5003 49.4542C92.7063 49.6149 92.8524 49.8273 92.9389 50.0911Z" fill="#1E328B"/>
<path d="M93.8423 54.357V49.2611H94.3799V49.8498H94.446C94.4868 49.7854 94.5434 49.7034 94.6158 49.6037C94.6895 49.5024 94.7949 49.4123 94.9317 49.3335C95.07 49.2531 95.2571 49.2129 95.493 49.2129C95.7979 49.2129 96.0667 49.2908 96.2994 49.4469C96.5321 49.6029 96.7137 49.8241 96.8442 50.1104C96.9747 50.3968 97.0399 50.7346 97.0399 51.1238C97.0399 51.5163 96.9747 51.8565 96.8442 52.1443C96.7137 52.4307 96.5329 52.6526 96.3018 52.8103C96.0707 52.9664 95.8042 53.0443 95.5024 53.0443C95.2697 53.0443 95.0835 53.0049 94.9435 52.9262C94.8036 52.8457 94.6959 52.7548 94.6204 52.6535C94.545 52.5505 94.4868 52.4652 94.446 52.3978H94.3987V54.357H93.8423ZM94.3894 51.1141C94.3894 51.394 94.4295 51.6409 94.5096 51.8548C94.5898 52.0672 94.707 52.2337 94.861 52.3543C95.0151 52.4733 95.2037 52.5328 95.4269 52.5328C95.6596 52.5328 95.8537 52.4701 96.0093 52.3447C96.1666 52.2176 96.2846 52.0471 96.3631 51.8332C96.4432 51.6176 96.4833 51.3779 96.4833 51.1141C96.4833 50.8536 96.4441 50.6187 96.3655 50.4096C96.2884 50.1989 96.1713 50.0323 96.0141 49.9101C95.8585 49.7863 95.6627 49.7244 95.4269 49.7244C95.2005 49.7244 95.0103 49.7831 94.8563 49.9005C94.7022 50.0163 94.5858 50.1788 94.5072 50.3879C94.4287 50.5954 94.3894 50.8375 94.3894 51.1141Z" fill="#1E328B"/>
<path d="M97.8891 52.9689V49.2629H98.4456V52.9689H97.8891ZM98.1721 48.6451C98.0636 48.6451 97.97 48.6074 97.8915 48.5317C97.8144 48.4562 97.7759 48.3653 97.7759 48.2591C97.7759 48.153 97.8144 48.0621 97.8915 47.9865C97.97 47.9109 98.0636 47.873 98.1721 47.873C98.2806 47.873 98.3733 47.9109 98.4504 47.9865C98.529 48.0621 98.5683 48.153 98.5683 48.2591C98.5683 48.3653 98.529 48.4562 98.4504 48.5317C98.3733 48.6074 98.2806 48.6451 98.1721 48.6451Z" fill="#1E328B"/>
<path d="M99.4648 52.9671V49.2611H100.003V49.8208H100.04C100.106 49.6374 100.226 49.4887 100.399 49.3745C100.572 49.2602 100.767 49.2031 100.984 49.2031C101.024 49.2031 101.075 49.204 101.137 49.2056C101.198 49.2072 101.245 49.2097 101.276 49.2129V49.7919C101.257 49.7871 101.214 49.7798 101.146 49.7702C101.08 49.7589 101.01 49.7533 100.936 49.7533C100.76 49.7533 100.603 49.791 100.465 49.8667C100.328 49.9407 100.22 50.0436 100.139 50.1755C100.061 50.3058 100.021 50.4546 100.021 50.6219V52.9671H99.4648Z" fill="#1E328B"/>
<path d="M103.344 53.0443C102.995 53.0443 102.694 52.9655 102.441 52.8079C102.189 52.6487 101.995 52.4267 101.858 52.1419C101.723 51.8557 101.655 51.5226 101.655 51.1431C101.655 50.7635 101.723 50.4289 101.858 50.1394C101.995 49.8483 102.185 49.6215 102.429 49.4589C102.674 49.2949 102.96 49.2129 103.287 49.2129C103.476 49.2129 103.662 49.245 103.846 49.3094C104.03 49.3737 104.197 49.4782 104.348 49.623C104.499 49.7662 104.62 49.9561 104.709 50.1925C104.799 50.4289 104.843 50.7201 104.843 51.0658V51.3071H102.051V50.8149H104.278C104.278 50.6058 104.237 50.4193 104.155 50.2552C104.075 50.0911 103.96 49.9616 103.811 49.8667C103.663 49.7719 103.488 49.7244 103.287 49.7244C103.065 49.7244 102.874 49.7807 102.712 49.8932C102.551 50.0042 102.428 50.149 102.342 50.3275C102.255 50.5061 102.212 50.6976 102.212 50.9019V51.2299C102.212 51.5098 102.259 51.747 102.353 51.9417C102.449 52.1347 102.582 52.2819 102.752 52.3832C102.922 52.4829 103.119 52.5328 103.344 52.5328C103.49 52.5328 103.622 52.512 103.74 52.4701C103.859 52.4267 103.962 52.3623 104.049 52.2771C104.135 52.1902 104.202 52.0824 104.249 51.9538L104.787 52.1081C104.73 52.2947 104.635 52.4588 104.502 52.6004C104.368 52.7403 104.203 52.8498 104.006 52.9285C103.81 53.0058 103.589 53.0443 103.344 53.0443Z" fill="#1E328B"/>
</g>
</g>
</svg>
