<svg width="64" height="64" viewBox="0 0 64 64" fill="none" xmlns="http://www.w3.org/2000/svg">
<g clip-path="url(#clip0_525_2815)">
<path d="M60.8388 31.3066H60.7617V31.538H60.8388V31.3066Z" fill="#1E328B"/>
<path d="M13.1859 41.0225H4.70401C2.54498 41.0225 0.771484 39.249 0.771484 37.0128V3.54777C0.771484 1.38873 2.54498 -0.384766 4.70401 -0.384766H37.7835C39.9426 -0.384766 41.7161 1.38873 41.7161 3.54777V12.1068H39.4028V3.54777C39.4028 2.62246 38.6317 1.92849 37.7835 1.92849H4.70401C3.77871 1.92849 3.08474 2.69957 3.08474 3.54777V37.0128C3.08474 37.9381 3.85582 38.6321 4.70401 38.6321H13.1859V41.0225Z" fill="#1E328B"/>
<path d="M23.0558 52.4336H15.8847C13.7256 52.4336 11.9521 50.6601 11.9521 48.501V14.8817C11.9521 12.7227 13.7256 10.9492 15.8847 10.9492H49.0413C51.2003 10.9492 52.9738 12.7227 52.9738 14.8817V22.4384H50.6606V14.8817C50.6606 13.9564 49.8895 13.2625 49.0413 13.2625H15.8847C14.9594 13.2625 14.2654 14.0336 14.2654 14.8817V48.4239C14.2654 49.3492 15.0365 50.0432 15.8847 50.0432H23.0558V52.4336Z" fill="#1E328B"/>
<path d="M60.0681 63.6157H25.9091C23.7501 63.6157 21.9766 61.8422 21.9766 59.6831V25.0614C21.9766 22.9024 23.7501 21.1289 25.9091 21.1289H60.0681C62.2272 21.1289 64.0007 22.9024 64.0007 25.0614V59.6831C64.0007 61.8422 62.2272 63.6157 60.0681 63.6157ZM25.9091 23.4422C24.9838 23.4422 24.2898 24.2132 24.2898 25.0614V59.6831C24.2898 60.6084 25.0609 61.3024 25.9091 61.3024H60.0681C60.9934 61.3024 61.6874 60.5313 61.6874 59.6831V25.0614C61.6874 24.1361 60.9163 23.4422 60.0681 23.4422H25.9091Z" fill="#1E328B"/>
</g>
<defs>
<clipPath id="clip0_525_2815">
<rect width="63.2289" height="64" fill="white" transform="translate(0.771484)"/>
</clipPath>
</defs>
</svg>
