<svg width="24" height="44" viewBox="0 0 24 44" fill="none" xmlns="http://www.w3.org/2000/svg">
<path d="M5.18322 0.427734H18.8157C20.4981 0.427734 21.9044 1.80889 21.9044 3.51645V17.1489C21.9044 18.8314 20.4981 20.2125 18.8157 20.2125H16.5807C16.6058 21.1667 16.631 21.9452 16.0032 22.573H16.0283C15.3754 23.2258 14.7224 23.1254 13.8938 23.1254V39.6203H17.0829C18.0874 39.6203 18.9161 40.449 18.9161 41.4534V42.4328H23.5348C24.0872 42.4328 24.0872 43.2866 23.5348 43.2866H0.462205C-0.0902663 43.2866 -0.0902663 42.4328 0.462205 42.4328H5.08092C5.05581 41.5288 5.00558 40.7754 5.60828 40.1477C5.90961 39.8463 6.43696 39.6203 6.91409 39.6203H10.0781V23.1254H9.29969C8.27013 23.1254 7.41633 22.2716 7.41633 21.2672V20.2125H5.18142C3.47382 20.2125 2.0927 18.8314 2.0927 17.1489V3.51649C2.0927 1.80889 3.47386 0.427777 5.18142 0.427777L5.18322 0.427734ZM11.3589 30.6806C11.3589 30.1281 12.1876 30.1281 12.1876 30.6806C12.1876 31.1577 12.3132 31.8106 11.7607 31.8106C11.2334 31.8106 11.3589 31.1577 11.3589 30.6806ZM11.3589 26.5874C11.3589 26.0349 12.1876 26.0349 12.1876 26.5874V28.3452C12.1876 28.8977 11.3589 28.8977 11.3589 28.3452V26.5874ZM18.0871 42.4295C18.1122 41.6008 18.1373 40.4457 17.0826 40.4457H6.91388C6.63765 40.4457 6.38652 40.5713 6.21076 40.7471C5.80898 41.1488 5.90942 41.8771 5.93454 42.4295L18.0871 42.4295ZM13.0664 39.617V23.1222H10.9319V39.617H13.0664ZM15.7282 20.2092H8.24661C8.2215 21.0881 8.19638 22.2934 9.30128 22.2934H14.6987C14.9749 22.2934 15.2261 22.1679 15.4269 21.9921C15.8538 21.515 15.7282 21.0379 15.7282 20.2092ZM8.94989 4.66832H11.9884C13.8968 4.66832 15.4789 6.22523 15.4789 8.13371C15.4789 9.31395 15.3533 10.1929 14.4493 11.0969C13.8216 11.7498 12.9426 12.1264 11.9884 12.1264H9.35168V15.5667C9.35168 16.1192 8.52299 16.1192 8.52299 15.5667V5.07186C8.52299 4.82075 8.72389 4.67008 8.94989 4.67008L8.94989 4.66832ZM11.9884 5.49701H9.35168V11.296H11.9884C13.4448 11.296 14.6251 10.0906 14.6251 8.65931C14.6251 7.73016 14.6 7.02705 13.8466 6.27371C13.3695 5.79658 12.7166 5.49525 11.9884 5.49525V5.49701ZM18.591 7.43059C18.591 7.98306 17.7623 7.98306 17.7623 7.43059V4.56786H14.8744C14.3471 4.56786 14.3471 3.71406 14.8744 3.71406H18.1892C18.4152 3.71406 18.591 3.91496 18.591 4.14096V7.43059ZM5.18481 3.11316C4.9588 3.11316 4.78302 3.28895 4.78302 3.51495V17.1474C4.78302 17.2478 4.83325 17.3483 4.90858 17.4236C4.98392 17.4989 5.08436 17.5241 5.18481 17.5241H18.8172C19.0181 17.5241 19.219 17.3483 19.219 17.1474V3.51495C19.219 3.28895 19.0181 3.11316 18.8172 3.11316H5.18481ZM4.30589 2.63603C4.5319 2.41003 4.83325 2.28447 5.18481 2.28447H18.8172C19.4952 2.28447 20.0477 2.83694 20.0477 3.51494V17.1474C20.0477 17.8003 19.4952 18.3778 18.8172 18.3778H5.18481C4.83325 18.3778 4.53192 18.2272 4.30589 18.0012C4.105 17.8254 3.95433 17.4487 3.95433 17.1474V3.51494C3.95433 3.16338 4.07989 2.86206 4.30589 2.63603ZM18.8169 1.25488H5.18447C3.95399 1.25488 2.92444 2.28443 2.92444 3.51491V17.1473C2.92444 18.3778 3.95399 19.3822 5.18447 19.3822H18.8169C20.0474 19.3822 21.0518 18.3778 21.0518 17.1473V3.51491C21.0518 2.28443 20.0473 1.25488 18.8169 1.25488Z" fill="black"/>
</svg>
