<svg width="74" height="71" viewBox="0 0 74 71" fill="none" xmlns="http://www.w3.org/2000/svg">
<g clip-path="url(#clip0_51_3826)">
<path d="M16.2925 43.109C18.6779 43.109 20.6114 41.2978 20.8625 38.9836H21.892C22.1683 38.9836 22.3943 38.7572 22.3943 38.4805C22.3943 38.2038 22.1683 37.9774 21.892 37.9774H20.8625C20.6114 35.6883 18.6528 33.9023 16.2925 33.9023C13.7563 33.9023 11.6973 35.965 11.6973 38.5057C11.6973 41.0463 13.7563 43.109 16.2925 43.109ZM16.3176 35.5122C17.9497 35.5122 19.3057 36.8455 19.3057 38.5057C19.3057 40.1659 17.9748 41.4991 16.3176 41.4991C14.6603 41.4991 13.3294 40.1659 13.3294 38.5057C13.3294 36.8455 14.6603 35.5122 16.3176 35.5122Z" fill="#1E328B"/>
<path d="M32.1369 43.109C34.6731 43.109 36.7321 41.0463 36.7321 38.5057C36.7321 35.965 34.6731 33.9023 32.1369 33.9023C29.6008 33.9023 27.5417 35.965 27.5417 38.5057C27.5417 41.0463 29.6008 43.109 32.1369 43.109Z" fill="#1E328B"/>
<path d="M43.4366 37.9774H42.4573C42.1811 37.9774 41.9551 38.2038 41.9551 38.4805C41.9551 38.7572 42.1811 38.9836 42.4573 38.9836H43.4366C43.6877 41.2978 45.6212 43.109 48.0067 43.109C50.5428 43.109 52.6018 41.0463 52.6018 38.5057C52.6018 35.965 50.5428 33.9023 48.0067 33.9023C45.6463 33.9023 43.7128 35.6883 43.4366 37.9774ZM48.0318 35.5122C49.6891 35.5122 51.0199 36.8455 51.0199 38.5057C51.0199 40.1659 49.6891 41.4991 48.0318 41.4991C46.3745 41.4991 45.0436 40.1659 45.0436 38.5057C45.0436 36.8455 46.3745 35.5122 48.0318 35.5122Z" fill="#1E328B"/>
<path d="M63.8515 43.109C66.3877 43.109 68.4467 41.0463 68.4467 38.5057C68.4467 35.965 66.3877 33.9023 63.8515 33.9023C61.3154 33.9023 59.2563 35.965 59.2563 38.5057C59.2563 41.0463 61.3154 43.109 63.8515 43.109ZM63.8766 35.5122C65.5339 35.5122 66.8648 36.8455 66.8648 38.5057C66.8648 40.1659 65.5339 41.4991 63.8766 41.4991C62.2194 41.4991 60.8885 40.1659 60.8885 38.5057C60.8885 36.8455 62.2194 35.5122 63.8766 35.5122Z" fill="#1E328B"/>
<path d="M63.7509 44.3926C60.2104 44.3926 57.1971 46.5056 55.8161 49.5493C54.4601 46.5307 51.4218 44.3926 47.8812 44.3926C44.3909 44.3926 41.4028 46.4553 40.0468 49.3984C38.6657 46.4553 35.6525 44.3926 32.1873 44.3926C28.7221 44.3926 25.6837 46.4553 24.3278 49.4235C22.9718 46.4553 19.9334 44.3926 16.4682 44.3926C11.6722 44.3926 7.80518 48.2916 7.80518 53.071C7.80518 53.5237 8.15672 53.8759 8.60871 53.8759C9.06069 53.8759 9.41223 53.5237 9.41223 53.071C9.41223 49.1468 12.5761 46.0025 16.4682 46.0025C20.3603 46.0025 23.5242 49.172 23.5242 53.071C23.5242 53.5237 23.8758 53.8759 24.3278 53.8759C24.7797 53.8759 25.1313 53.5237 25.1313 53.071C25.1313 49.1468 28.2952 46.0025 32.1873 46.0025C35.9287 46.0025 39.0173 48.9456 39.2182 52.6182C39.2182 52.744 39.2182 52.92 39.2182 53.071C39.2182 53.5237 39.5697 53.8759 40.0217 53.8759C40.4737 53.8759 40.8252 53.5237 40.8252 53.071C40.8252 52.92 40.8252 52.7691 40.8252 52.6182C41.0763 48.9204 44.1147 46.0025 47.8561 46.0025C51.7733 46.0025 54.9121 49.172 54.9121 53.071C54.9121 53.5237 55.2636 53.8759 55.7156 53.8759C55.7407 53.8759 55.7407 53.8759 55.7658 53.8759C55.791 53.8759 55.791 53.8759 55.8161 53.8759C56.2681 53.8759 56.6196 53.5237 56.6196 53.071C56.6196 49.1468 59.7835 46.0025 63.6756 46.0025C67.5677 46.0025 70.7316 49.172 70.7316 53.071C70.7316 53.5237 71.0831 53.8759 71.5351 53.8759C71.9871 53.8759 72.3386 53.5237 72.3386 53.071C72.414 48.2664 68.5219 44.3926 63.7509 44.3926Z" fill="#1E328B"/>
<path d="M32.313 28.1929C32.5892 28.1929 32.8152 27.9666 32.8152 27.6899L32.9156 21.7785C32.9156 21.5018 32.6897 21.2754 32.4134 21.2754C32.1372 21.2754 31.9112 21.5018 31.9112 21.7785L31.8108 27.6899C31.8108 27.9666 32.0368 28.1929 32.313 28.1929Z" fill="#1E328B"/>
<path d="M26.4371 29.2999C26.5375 29.476 26.6882 29.5515 26.8639 29.5515C26.9393 29.5515 27.0397 29.5263 27.1151 29.476C27.3662 29.3503 27.4415 29.0232 27.3159 28.7969L24.4282 23.6653C24.3027 23.4137 23.9763 23.3383 23.7503 23.464C23.4992 23.5898 23.4238 23.9168 23.5494 24.1432L26.4371 29.2999Z" fill="#1E328B"/>
<path d="M17.548 30.3819L22.5952 33.4005C22.6705 33.4508 22.7709 33.476 22.8463 33.476C23.022 33.476 23.1727 33.4005 23.2731 33.2244C23.4238 32.998 23.3485 32.671 23.0974 32.5452L18.0502 29.5267C17.8242 29.3757 17.4978 29.4512 17.3722 29.7027C17.2216 29.9291 17.2969 30.2561 17.548 30.3819Z" fill="#1E328B"/>
<path d="M37.486 29.6526C37.5613 29.7029 37.6618 29.7281 37.7371 29.7281C37.9129 29.7281 38.0635 29.6526 38.164 29.4765L41.1772 24.3953C41.3279 24.1689 41.2525 23.8419 41.0014 23.7161C40.7503 23.5652 40.449 23.6406 40.3234 23.8922L37.3102 28.9735C37.1596 29.1998 37.2349 29.5269 37.486 29.6526Z" fill="#1E328B"/>
<path d="M41.2268 33.4998C41.3272 33.6759 41.4779 33.7514 41.6537 33.7514C41.729 33.7514 41.8294 33.7262 41.9048 33.6759L47.0273 30.8083C47.2784 30.6825 47.3537 30.3555 47.2282 30.1291C47.1026 29.9027 46.7762 29.8021 46.5502 29.9278L41.4277 32.7955C41.1766 32.9464 41.0761 33.2483 41.2268 33.4998Z" fill="#1E328B"/>
<path d="M22.4442 43.437L20.8372 44.3426C20.5861 44.4683 20.5108 44.7954 20.6363 45.0217C20.7367 45.1978 20.8874 45.2733 21.0632 45.2733C21.1385 45.2733 21.2389 45.2481 21.3143 45.1978L22.9213 44.2923C23.1724 44.1665 23.2478 43.8395 23.1222 43.6131C22.9967 43.3867 22.6953 43.2861 22.4442 43.437Z" fill="#1E328B"/>
<path d="M41.7545 43.7122C41.5285 43.5613 41.2021 43.6367 41.0514 43.8883C40.9008 44.1147 40.9761 44.4417 41.2272 44.5926L42.6585 45.473C42.7338 45.5233 42.8343 45.5485 42.9096 45.5485C43.0854 45.5485 43.236 45.473 43.3365 45.297C43.4871 45.0706 43.4118 44.7435 43.1607 44.5926L41.7545 43.7122Z" fill="#1E328B"/>
</g>
<defs>
<clipPath id="clip0_51_3826">
<rect width="67.5467" height="32.7012" fill="white" transform="translate(5.94629 21.2988)"/>
</clipPath>
</defs>
</svg>
