<svg width="32" height="33" viewBox="0 0 32 33" fill="none" xmlns="http://www.w3.org/2000/svg">
<path d="M26 7.83268L25.1733 21.1993C24.9627 24.614 24.8573 26.322 24 27.55C23.5768 28.1569 23.0319 28.6691 22.4 29.054C21.124 29.8327 19.4133 29.8327 15.992 29.8327C12.5653 29.8327 10.852 29.8327 9.57333 29.0527C8.94118 28.667 8.39628 28.1539 7.97333 27.546C7.11733 26.3167 7.01333 24.606 6.808 21.186L6 7.83268M4 7.83268H28M21.408 7.83268L20.4973 5.95535C19.8933 4.70735 19.5907 4.08468 19.0693 3.69535C18.9535 3.6091 18.8309 3.53241 18.7027 3.46602C18.1253 3.16602 17.432 3.16602 16.0467 3.16602C14.6253 3.16602 13.9147 3.16602 13.3267 3.47802C13.1967 3.54763 13.0727 3.62791 12.956 3.71802C12.4293 4.12202 12.1347 4.76868 11.5453 6.06068L10.7373 7.83268M12.6667 22.4993V14.4993M19.3333 22.4993V14.4993" stroke="#CC2131" stroke-width="2" stroke-linecap="round" stroke-linejoin="round"/>
</svg>
