<svg width="32" height="33" viewBox="0 0 32 33" fill="none" xmlns="http://www.w3.org/2000/svg">
<path d="M18.3066 5.17953L20.6533 9.87287C20.9733 10.5262 21.8266 11.1529 22.5466 11.2729L26.7999 11.9795C29.5199 12.4329 30.1599 14.4062 28.1999 16.3529L24.8933 19.6595C24.3333 20.2195 24.0266 21.2995 24.1999 22.0729L25.1466 26.1662C25.8933 29.4062 24.1733 30.6595 21.3066 28.9662L17.3199 26.6062C16.5999 26.1795 15.4133 26.1795 14.6799 26.6062L10.6932 28.9662C7.83988 30.6595 6.10655 29.3929 6.85321 26.1662L7.79988 22.0729C7.97321 21.2995 7.66655 20.2195 7.10655 19.6595L3.79988 16.3529C1.85321 14.4062 2.47988 12.4329 5.19988 11.9795L9.45321 11.2729C10.1599 11.1529 11.0132 10.5262 11.3332 9.87287L13.6799 5.17953C14.9599 2.63286 17.0399 2.63286 18.3066 5.17953Z" fill="#FFAD0C" stroke="#FFC400" stroke-width="1.5" stroke-linecap="round" stroke-linejoin="round"/>
</svg>
