<svg width="30" height="29" viewBox="0 0 30 29" fill="none" xmlns="http://www.w3.org/2000/svg">
<path d="M17.3066 3.18148L19.6533 7.87482C19.9733 8.52817 20.8266 9.15482 21.5466 9.27482L25.7999 9.98148C28.5199 10.4348 29.1599 12.4081 27.1999 14.3548L23.8933 17.6615C23.3333 18.2215 23.0266 19.3015 23.1999 20.0748L24.1466 24.1681C24.8933 27.4081 23.1733 28.6615 20.3066 26.9681L16.3199 24.6081C15.5999 24.1815 14.4133 24.1815 13.6799 24.6081L9.69321 26.9681C6.83988 28.6615 5.10655 27.3948 5.85321 24.1681L6.79988 20.0748C6.97321 19.3015 6.66655 18.2215 6.10655 17.6615L2.79988 14.3548C0.853212 12.4081 1.47988 10.4348 4.19988 9.98148L8.45321 9.27482C9.15988 9.15482 10.0132 8.52817 10.3332 7.87482L12.6799 3.18148C13.9599 0.634818 16.0399 0.634818 17.3066 3.18148Z" stroke="#323135" stroke-width="2" stroke-linecap="round" stroke-linejoin="round"/>
</svg>
