<svg width="24" height="24" viewBox="0 0 24 24" fill="none" xmlns="http://www.w3.org/2000/svg">
<path d="M18.0001 7.16C17.9401 7.15 17.8701 7.15 17.8101 7.16C16.4301 7.11 15.3301 5.98 15.3301 4.58C15.3301 3.15 16.4801 2 17.9101 2C19.3401 2 20.4901 3.16 20.4901 4.58C20.4801 5.98 19.3801 7.11 18.0001 7.16Z" stroke="#323135" stroke-width="1.5" stroke-linecap="round" stroke-linejoin="round"/>
<path d="M16.9699 14.4401C18.3399 14.6701 19.8499 14.4301 20.9099 13.7201C22.3199 12.7801 22.3199 11.2401 20.9099 10.3001C19.8399 9.59017 18.3099 9.35016 16.9399 9.59016" stroke="#323135" stroke-width="1.5" stroke-linecap="round" stroke-linejoin="round"/>
<path d="M5.96998 7.16C6.02998 7.15 6.09998 7.15 6.15998 7.16C7.53998 7.11 8.63998 5.98 8.63998 4.58C8.63998 3.15 7.48998 2 6.05998 2C4.62998 2 3.47998 3.16 3.47998 4.58C3.48998 5.98 4.58998 7.11 5.96998 7.16Z" stroke="#323135" stroke-width="1.5" stroke-linecap="round" stroke-linejoin="round"/>
<path d="M6.99994 14.4401C5.62994 14.6701 4.11994 14.4301 3.05994 13.7201C1.64994 12.7801 1.64994 11.2401 3.05994 10.3001C4.12994 9.59017 5.65994 9.35016 7.02994 9.59016" stroke="#323135" stroke-width="1.5" stroke-linecap="round" stroke-linejoin="round"/>
<path d="M12.0001 14.6307C11.9401 14.6207 11.8701 14.6207 11.8101 14.6307C10.4301 14.5807 9.33008 13.4507 9.33008 12.0507C9.33008 10.6207 10.4801 9.4707 11.9101 9.4707C13.3401 9.4707 14.4901 10.6307 14.4901 12.0507C14.4801 13.4507 13.3801 14.5907 12.0001 14.6307Z" stroke="#323135" stroke-width="1.5" stroke-linecap="round" stroke-linejoin="round"/>
<path d="M9.08997 17.7794C7.67997 18.7194 7.67997 20.2594 9.08997 21.1994C10.69 22.2694 13.31 22.2694 14.91 21.1994C16.32 20.2594 16.32 18.7194 14.91 17.7794C13.32 16.7194 10.69 16.7194 9.08997 17.7794Z" stroke="#323135" stroke-width="1.5" stroke-linecap="round" stroke-linejoin="round"/>
</svg>
