<svg width="75" height="74" viewBox="0 0 75 74" fill="none" xmlns="http://www.w3.org/2000/svg">
<path d="M25.4715 20.0205L27.4703 18.0155L29.0089 19.5495C29.1272 19.6676 29.281 19.7437 29.4468 19.7661C29.6125 19.7884 29.781 19.7559 29.9265 19.6733C31.013 19.0647 32.1681 18.5875 33.3675 18.2518C33.5275 18.2062 33.6683 18.1096 33.7685 17.9767C33.8687 17.8438 33.9228 17.6819 33.9226 17.5154V15.3438H41.5693V17.5154C41.5693 17.6818 41.6236 17.8437 41.7239 17.9765C41.8242 18.1092 41.9651 18.2056 42.1252 18.251C43.3246 18.5865 44.4797 19.0637 45.5662 19.6726C45.7116 19.7551 45.8801 19.7877 46.0459 19.7653C46.2116 19.7429 46.3654 19.6668 46.4838 19.5487L48.0223 18.0148L53.4277 23.4194L51.8923 24.9587C51.7741 25.0771 51.698 25.2309 51.6757 25.3966C51.6533 25.5624 51.6859 25.7309 51.7684 25.8763C52.3771 26.9628 52.8543 28.118 53.1899 29.3173C53.2355 29.4774 53.3321 29.6182 53.465 29.7184C53.5979 29.8186 53.7598 29.8727 53.9263 29.8725H56.0979V35.2251C56.0979 35.4279 56.1785 35.6224 56.3219 35.7658C56.4653 35.9092 56.6598 35.9898 56.8626 35.9898C57.0654 35.9898 57.2599 35.9092 57.4033 35.7658C57.5467 35.6224 57.6273 35.4279 57.6273 35.2251V29.1078C57.6273 28.905 57.5467 28.7105 57.4033 28.5671C57.2599 28.4237 57.0654 28.3431 56.8626 28.3431H54.4921C54.1972 27.4103 53.8235 26.5042 53.375 25.6347L55.0457 23.9585C55.1889 23.8152 55.2693 23.6209 55.2693 23.4183C55.2693 23.2157 55.1889 23.0214 55.0457 22.878L48.5614 16.3937C48.418 16.2506 48.2237 16.1702 48.0211 16.1702C47.8186 16.1702 47.6243 16.2506 47.4809 16.3937L45.8063 18.0637C44.9371 17.6158 44.0313 17.2431 43.0986 16.9496V14.5791C43.0986 14.3763 43.018 14.1818 42.8746 14.0384C42.7312 13.895 42.5367 13.8145 42.3339 13.8145H33.1579C32.9551 13.8145 32.7606 13.895 32.6172 14.0384C32.4738 14.1818 32.3933 14.3763 32.3933 14.5791V16.9496C31.4603 17.2442 30.5542 17.6179 29.6848 18.0668L28.0087 16.3929C27.8653 16.2496 27.6708 16.169 27.468 16.169C27.2653 16.169 27.0708 16.2496 26.9274 16.3929L24.3887 18.9377C24.2496 19.0821 24.1728 19.2754 24.1748 19.4759C24.1769 19.6764 24.2576 19.8681 24.3995 20.0097C24.5415 20.1512 24.7334 20.2314 24.9339 20.2328C25.1344 20.2343 25.3275 20.1569 25.4715 20.0174V20.0205Z" fill="#1E328B"/>
<path d="M35.227 36.5311C35.2866 36.472 35.3672 36.4388 35.4511 36.4388C35.535 36.4388 35.6156 36.472 35.6751 36.5311C35.8194 36.6704 36.0125 36.7475 36.213 36.7458C36.4135 36.744 36.6053 36.6636 36.7471 36.5218C36.8888 36.38 36.9693 36.1883 36.971 35.9878C36.9727 35.7873 36.8957 35.5941 36.7564 35.4499C36.4099 35.1043 35.9405 34.9102 35.4511 34.9102C34.9617 34.9102 34.4923 35.1043 34.1458 35.4499C34.0065 35.5941 33.9294 35.7873 33.9312 35.9878C33.9329 36.1883 34.0133 36.38 34.1551 36.5218C34.2969 36.6636 34.4887 36.744 34.6892 36.7458C34.8897 36.7475 35.0828 36.6704 35.227 36.5311Z" fill="#1E328B"/>
<path d="M39.8149 36.5311C39.8745 36.472 39.955 36.4388 40.039 36.4388C40.1229 36.4388 40.2034 36.472 40.263 36.5311C40.4072 36.6704 40.6004 36.7475 40.8009 36.7458C41.0014 36.744 41.1932 36.6636 41.335 36.5218C41.4767 36.38 41.5571 36.1883 41.5589 35.9878C41.5606 35.7873 41.4836 35.5941 41.3443 35.4499C40.9978 35.1043 40.5284 34.9102 40.039 34.9102C39.5496 34.9102 39.0802 35.1043 38.7337 35.4499C38.5944 35.5941 38.5173 35.7873 38.5191 35.9878C38.5208 36.1883 38.6012 36.38 38.743 36.5218C38.8848 36.6636 39.0766 36.744 39.2771 36.7458C39.4776 36.7475 39.6707 36.6704 39.8149 36.5311Z" fill="#1E328B"/>
<path d="M34.8156 39.3892C34.7599 39.4728 34.7211 39.5665 34.7016 39.665C34.6821 39.7635 34.6822 39.8649 34.7018 39.9634C34.7215 40.0619 34.7604 40.1555 34.8162 40.239C34.8721 40.3225 34.9439 40.3941 35.0274 40.4498C35.8318 40.9882 36.7779 41.2757 37.7458 41.2757C38.7137 41.2757 39.6598 40.9882 40.4642 40.4498C40.5477 40.3941 40.6195 40.3225 40.6754 40.239C40.7312 40.1555 40.7701 40.0619 40.7898 39.9634C40.8094 39.8649 40.8095 39.7635 40.79 39.665C40.7705 39.5665 40.7317 39.4728 40.676 39.3892C40.6203 39.3057 40.5486 39.2339 40.4652 39.1781C40.3817 39.1222 40.2881 39.0833 40.1896 39.0637C40.0911 39.044 39.9897 39.0439 39.8912 39.0634C39.7927 39.083 39.699 39.1217 39.6154 39.1774C39.062 39.5473 38.4114 39.7447 37.7458 39.7447C37.0802 39.7447 36.4296 39.5473 35.8762 39.1774C35.7927 39.1217 35.699 39.0829 35.6004 39.0634C35.5019 39.0439 35.4005 39.044 35.302 39.0636C35.2035 39.0833 35.1099 39.1222 35.0264 39.1781C34.943 39.2339 34.8713 39.3057 34.8156 39.3892Z" fill="#1E328B"/>
<path d="M44.627 51.2832C44.4242 51.2832 44.2297 51.3638 44.0863 51.5072C43.9429 51.6506 43.8623 51.8451 43.8623 52.0479V58.9299C43.8623 59.1327 43.9429 59.3272 44.0863 59.4706C44.2297 59.614 44.4242 59.6945 44.627 59.6945C44.8298 59.6945 45.0243 59.614 45.1677 59.4706C45.3111 59.3272 45.3916 59.1327 45.3916 58.9299V52.0479C45.3916 51.8451 45.3111 51.6506 45.1677 51.5072C45.0243 51.3638 44.8298 51.2832 44.627 51.2832Z" fill="#1E328B"/>
<path d="M30.8633 51.2832C30.6605 51.2832 30.466 51.3638 30.3226 51.5072C30.1792 51.6506 30.0986 51.8451 30.0986 52.0479V58.9299C30.0986 59.1327 30.1792 59.3272 30.3226 59.4706C30.466 59.614 30.6605 59.6945 30.8633 59.6945C31.0661 59.6945 31.2606 59.614 31.404 59.4706C31.5474 59.3272 31.628 59.1327 31.628 58.9299V52.0479C31.628 51.8451 31.5474 51.6506 31.404 51.5072C31.2606 51.3638 31.0661 51.2832 30.8633 51.2832Z" fill="#1E328B"/>
<path d="M60.5324 46.238C60.4612 46.1431 60.3688 46.066 60.2626 46.0129C60.1564 45.9598 60.0394 45.9322 59.9207 45.9322H59.2799C58.5115 45.9315 57.7582 46.1461 57.1055 46.5515C56.4527 46.957 55.9265 47.5371 55.5865 48.2262H53.8033C52.8337 48.229 51.9016 48.6006 51.196 49.2657C50.4905 49.9308 50.0645 50.8394 50.0045 51.8071L49.98 51.8515V51.2848C49.9785 50.77 49.919 50.257 49.8026 49.7555L55.0474 44.5107C55.1908 44.3673 55.2713 44.1728 55.2713 43.97C55.2713 43.7673 55.1908 43.5728 55.0474 43.4294L53.3759 41.7579C53.8249 40.8883 54.2001 39.9825 54.4976 39.0502H56.862C57.0648 39.0502 57.2593 38.9696 57.4027 38.8262C57.5461 38.6828 57.6267 38.4883 57.6267 38.2855C57.6267 38.0827 57.5461 37.8882 57.4027 37.7448C57.2593 37.6014 57.0648 37.5208 56.862 37.5208H53.9295C53.7631 37.5208 53.6012 37.5751 53.4685 37.6755C53.3357 37.7758 53.2393 37.9167 53.1939 38.0768C52.8541 39.2775 52.3749 40.4345 51.7663 41.5239C51.684 41.6696 51.6518 41.8382 51.6746 42.004C51.6974 42.1697 51.7739 42.3234 51.8924 42.4415L53.4256 43.9746L49.2268 48.1742C48.7688 47.2746 48.119 46.4866 47.3232 45.8656C46.5275 45.2446 45.6051 44.8058 44.6212 44.5802C46.5089 43.2941 47.9985 41.5049 48.9212 39.4154C49.844 37.3259 50.1629 35.0197 49.8419 32.7582C49.5209 30.4967 48.5729 28.3704 47.1051 26.6202C45.6374 24.87 43.7087 23.5659 41.5378 22.8559C39.3668 22.1458 37.0403 22.0581 34.822 22.6027C32.6037 23.1473 30.5823 24.3024 28.987 25.9371C27.3916 27.5718 26.2861 29.6208 25.7958 31.8517C25.3054 34.0826 25.4498 36.4062 26.2126 38.5593C26.2808 38.7503 26.422 38.9064 26.6053 38.9933C26.7885 39.0803 26.9988 39.0908 27.1899 39.0226C27.3809 38.9545 27.5371 38.8133 27.624 38.63C27.7109 38.4467 27.7214 38.2364 27.6533 38.0454C27.1263 36.56 26.9352 34.9763 27.0936 33.4081C27.252 31.84 27.756 30.3265 28.5693 28.9765V31.4035C28.5731 32.2632 28.7835 33.1093 29.1827 33.8707C29.582 34.632 30.1583 35.2862 30.8633 35.7782V38.2855C30.864 39.4166 31.1434 40.5301 31.6769 41.5274C32.2104 42.5248 32.9815 43.3753 33.922 44.0037V44.4028H33.8081C31.8511 43.6324 30.1644 42.3027 28.9585 40.5795C28.8421 40.4134 28.6645 40.3004 28.4647 40.2652C28.265 40.2301 28.0595 40.2758 27.8934 40.3922C27.7273 40.5086 27.6142 40.6862 27.5791 40.886C27.5439 41.0857 27.5896 41.2913 27.706 41.4573C28.5642 42.6827 29.6391 43.7408 30.8779 44.5795C29.8924 44.804 28.9682 45.2422 28.1708 45.8632C27.3734 46.4843 26.7221 47.2729 26.2631 48.1734L22.0643 43.9746L23.5936 42.4354C23.7119 42.3171 23.7881 42.1633 23.8107 41.9976C23.8332 41.8318 23.8007 41.6633 23.7183 41.5178C23.1096 40.4312 22.6324 39.2761 22.2968 38.0768C22.2515 37.9173 22.1557 37.7769 22.0237 37.6766C21.8917 37.5763 21.7307 37.5217 21.565 37.5208H19.3933V29.8742H21.565C21.7314 29.8742 21.8932 29.8199 22.026 29.7196C22.1588 29.6192 22.2552 29.4783 22.3006 29.3183C22.6362 28.1189 23.1134 26.9638 23.7221 25.8773C23.8045 25.7317 23.837 25.5632 23.8145 25.3975C23.792 25.2317 23.7157 25.0779 23.5975 24.9597L22.0681 23.4219L23.3077 22.1878C23.4473 22.0438 23.5248 21.8508 23.5235 21.6503C23.5222 21.4498 23.4422 21.2578 23.3007 21.1157C23.1592 20.9737 22.9676 20.8928 22.7671 20.8907C22.5665 20.8885 22.3732 20.9652 22.2287 21.1042L20.4463 22.8782C20.3029 23.0216 20.2224 23.2161 20.2224 23.4189C20.2224 23.6216 20.3029 23.8161 20.4463 23.9595L22.1171 25.6356C21.6679 26.5052 21.2939 27.4116 20.9991 28.3448H18.6287C18.4259 28.3448 18.2314 28.4254 18.088 28.5688C17.9446 28.7122 17.864 28.9067 17.864 29.1095V38.2855C17.864 38.4883 17.9446 38.6828 18.088 38.8262C18.2314 38.9696 18.4259 39.0502 18.6287 39.0502H20.9991C21.2937 39.9832 21.6675 40.8893 22.1163 41.7586L20.4424 43.4348C20.2993 43.5781 20.2189 43.7724 20.2189 43.975C20.2189 44.1776 20.2993 44.3719 20.4424 44.5152L25.6865 49.7593C25.5707 50.2596 25.5117 50.7713 25.5107 51.2848V51.8515L25.4862 51.8071C25.4262 50.8394 25.0002 49.9308 24.2946 49.2657C23.5891 48.6006 22.6569 48.229 21.6873 48.2262H19.9041C19.5641 47.5371 19.0379 46.957 18.3852 46.5515C17.7324 46.1461 16.9792 45.9315 16.2108 45.9322H15.57C15.4516 45.9322 15.3349 45.9598 15.229 46.0126C15.1231 46.0654 15.0309 46.1421 14.9597 46.2366C14.8885 46.3311 14.8401 46.4408 14.8185 46.5572C14.7969 46.6736 14.8026 46.7933 14.8351 46.9071L15.7298 50.0423C15.9608 50.8395 16.4439 51.5405 17.1067 52.0402C17.7695 52.5399 18.5763 52.8114 19.4063 52.8142H20.4256L23.2824 59.242C23.3648 59.4273 23.5174 59.5724 23.7066 59.6452C23.8959 59.7181 24.1064 59.7128 24.2918 59.6304C24.4771 59.5481 24.6222 59.3955 24.695 59.2062C24.7679 59.0169 24.7626 58.8064 24.6802 58.6211L23.4071 55.7581L25.4961 54.9744L27.901 59.3031C27.9498 59.3909 28.0154 59.4682 28.0941 59.5306C28.1728 59.593 28.263 59.6393 28.3595 59.6669C28.4561 59.6944 28.5571 59.7027 28.6569 59.6912C28.7567 59.6797 28.8532 59.6486 28.941 59.5998C29.0287 59.551 29.106 59.4854 29.1684 59.4067C29.2308 59.3281 29.2771 59.2379 29.3047 59.1413C29.3322 59.0447 29.3405 58.9437 29.329 58.8439C29.3175 58.7442 29.2864 58.6476 29.2376 58.5599L27.04 54.6043V51.2848C27.0416 49.8657 27.6061 48.5052 28.6095 47.5017C29.613 46.4983 30.9735 45.9338 32.3927 45.9322H32.606L33.961 49.9971C33.9955 50.1016 34.0521 50.1973 34.127 50.2778C34.2018 50.3584 34.2932 50.4218 34.3948 50.4638C34.4964 50.5059 34.6059 50.5255 34.7158 50.5213C34.8257 50.5172 34.9334 50.4894 35.0315 50.4399L35.4995 50.2051C35.6033 50.7246 35.8837 51.1921 36.2931 51.5283C36.7025 51.8645 37.2156 52.0487 37.7453 52.0495C37.8218 52.0495 37.8983 52.0342 37.9686 52.0273L38.4779 57.1177L37.7453 57.8503L37.0128 57.1177L37.3278 53.9681C37.3379 53.8681 37.3281 53.7672 37.2992 53.6711C37.2702 53.5749 37.2226 53.4854 37.159 53.4077C37.0307 53.2506 36.8452 53.151 36.6434 53.1307C36.5435 53.1207 36.4426 53.1304 36.3465 53.1594C36.2503 53.1884 36.1608 53.236 36.083 53.2995C35.926 53.4279 35.8264 53.6133 35.8061 53.8151L35.4551 57.3249C35.4438 57.4377 35.4577 57.5515 35.4958 57.6583C35.5339 57.765 35.5952 57.8619 35.6754 57.942L37.2047 59.4714C37.3481 59.6147 37.5426 59.6952 37.7453 59.6952C37.9481 59.6952 38.1425 59.6147 38.2859 59.4714L39.8153 57.942C39.8954 57.8619 39.9567 57.765 39.9948 57.6583C40.0329 57.5515 40.0468 57.4377 40.0355 57.3249L39.4329 51.2963C39.7161 50.9903 39.9101 50.6127 39.9942 50.2044L40.4622 50.4391C40.5604 50.4887 40.6681 50.5164 40.7779 50.5206C40.8878 50.5247 40.9973 50.5051 41.0989 50.4631C41.2005 50.421 41.2919 50.3576 41.3667 50.2771C41.4416 50.1965 41.4982 50.1008 41.5327 49.9964L42.8847 45.9322H43.098C44.5171 45.9338 45.8776 46.4983 46.8811 47.5017C47.8846 48.5052 48.449 49.8657 48.4507 51.2848V54.6043L46.253 58.5599C46.1544 58.7371 46.1303 58.9463 46.186 59.1413C46.2416 59.3363 46.3724 59.5013 46.5497 59.5998C46.7269 59.6984 46.9361 59.7225 47.1311 59.6669C47.3261 59.6112 47.4911 59.4804 47.5896 59.3031L49.9945 54.9744L52.0828 55.7581L50.8104 58.6211C50.7696 58.7128 50.7474 58.8117 50.7448 58.9121C50.7423 59.0125 50.7595 59.1125 50.7956 59.2062C50.8317 59.2999 50.8858 59.3856 50.955 59.4584C51.0242 59.5312 51.1071 59.5896 51.1989 59.6304C51.2907 59.6712 51.3896 59.6935 51.49 59.696C51.5904 59.6986 51.6903 59.6813 51.784 59.6452C51.8777 59.6092 51.9634 59.555 52.0362 59.4858C52.109 59.4166 52.1675 59.3337 52.2082 59.242L55.065 52.8142H56.0843C56.9144 52.8115 57.7212 52.5398 58.3839 52.04C59.0466 51.5401 59.5295 50.8389 59.7601 50.0415L60.6555 46.9064C60.6879 46.793 60.6936 46.6737 60.6723 46.5578C60.6509 46.4418 60.603 46.3324 60.5324 46.238ZM17.2003 49.6209L16.5885 47.4898C17.062 47.5597 17.5067 47.7596 17.8733 48.0673C18.2398 48.3749 18.5137 48.7783 18.6646 49.2325C18.7155 49.3853 18.8134 49.5181 18.9442 49.6121C19.0751 49.706 19.2322 49.7562 19.3933 49.7555H21.6873C22.1616 49.7561 22.6241 49.9034 23.0114 50.1772C23.3987 50.451 23.6918 50.8379 23.8506 51.2848H19.4063C18.9082 51.2832 18.424 51.1201 18.0263 50.8202C17.6286 50.5202 17.3388 50.0994 17.2003 49.6209ZM22.7823 54.3573L22.0995 52.8142H24.2964L24.746 53.6224L22.7823 54.3573ZM48.4507 34.4622C48.4582 36.6089 47.8154 38.7077 46.6071 40.4821C45.3987 42.2565 43.6813 43.6234 41.6811 44.4028H41.5687V44.0037C42.5091 43.3753 43.2802 42.5248 43.8137 41.5274C44.3472 40.5301 44.6267 39.4166 44.6273 38.2855V35.7782C45.5622 35.1285 46.2651 34.1971 46.6333 33.1199C47.0016 32.0426 47.0161 30.8759 46.6746 29.7899C46.3331 28.7039 45.6535 27.7553 44.735 27.0827C43.8165 26.4101 42.7071 26.0486 41.5687 26.0508H31.1447C32.722 24.8077 34.6176 24.0341 36.6142 23.8186C38.6109 23.603 40.6279 23.9543 42.4341 24.8322C44.2403 25.7101 45.7627 27.0791 46.8268 28.7823C47.8909 30.4854 48.4537 32.4539 48.4507 34.4622ZM37.7453 47.1449L35.4513 44.8509V44.7661C36.9338 45.3013 38.5568 45.3013 40.0393 44.7661V44.8509L37.7453 47.1449ZM32.3927 38.2855V31.8623C34.0618 32.6147 35.8371 33.1047 37.6559 33.3152C37.8555 33.3354 38.0551 33.2764 38.2116 33.1508C38.3681 33.0252 38.469 32.8432 38.4924 32.6439C38.5159 32.4446 38.4601 32.2441 38.3371 32.0856C38.2141 31.9271 38.0337 31.8233 37.8348 31.7966C35.9591 31.5788 34.1358 31.0354 32.4469 30.1908L31.9698 29.9522C31.853 29.8938 31.7232 29.8663 31.5928 29.8723C31.4624 29.8783 31.3357 29.9176 31.2248 29.9865C31.1138 30.0553 31.0224 30.1514 30.9591 30.2656C30.8959 30.3798 30.8629 30.5083 30.8633 30.6388V33.6853C30.3692 33.027 30.101 32.2266 30.0987 31.4035V27.5802H41.5687C42.278 27.5785 42.9738 27.7746 43.5779 28.1466C44.1819 28.5186 44.6702 29.0516 44.988 29.6859C45.3057 30.3201 45.4403 31.0304 45.3766 31.7369C45.3129 32.4434 45.0534 33.1181 44.6273 33.6853V32.1682C44.6273 32.0519 44.6008 31.9372 44.5498 31.8328C44.4989 31.7283 44.4247 31.6369 44.3331 31.5654C44.2415 31.4939 44.1347 31.4442 44.021 31.4201C43.9073 31.396 43.7896 31.3982 43.6768 31.4265C42.7189 31.665 41.7412 31.8157 40.7558 31.8768C40.6554 31.8832 40.5572 31.9092 40.4669 31.9535C40.3765 31.9978 40.2958 32.0594 40.2292 32.1349C40.1627 32.2104 40.1117 32.2982 40.0791 32.3934C40.0465 32.4886 40.033 32.5893 40.0393 32.6897C40.0457 32.7901 40.0717 32.8883 40.116 32.9786C40.1602 33.069 40.2219 33.1497 40.2974 33.2163C40.3728 33.2828 40.4607 33.3338 40.5559 33.3664C40.6511 33.399 40.7517 33.4125 40.8522 33.4062C41.6061 33.3578 42.3561 33.2621 43.098 33.1194V38.2855C43.098 39.7051 42.5341 41.0666 41.5302 42.0704C40.5264 43.0742 39.1649 43.6382 37.7453 43.6382C36.3257 43.6382 34.9642 43.0742 33.9604 42.0704C32.9566 41.0666 32.3927 39.7051 32.3927 38.2855ZM34.2179 45.9322H34.3708L36.4553 48.0167L35.134 48.6773L34.2179 45.9322ZM38.51 49.7555C38.51 49.9583 38.4294 50.1528 38.286 50.2962C38.1426 50.4396 37.9481 50.5202 37.7453 50.5202C37.5425 50.5202 37.348 50.4396 37.2046 50.2962C37.0612 50.1528 36.9807 49.9583 36.9807 49.7555V49.4634L37.7453 49.0811L38.51 49.4634V49.7555ZM40.3574 48.6773L39.0361 48.0167L41.1206 45.9322H41.2735L40.3574 48.6773ZM52.7053 54.3573L50.7447 53.6224L51.1943 52.8142H53.3912L52.7053 54.3573ZM58.2873 49.6209C58.1489 50.0989 57.8595 50.5192 57.4624 50.8191C57.0654 51.119 56.5819 51.2824 56.0843 51.2848H51.6401C51.7988 50.8379 52.0919 50.451 52.4792 50.1772C52.8665 49.9034 53.329 49.7561 53.8033 49.7555H56.0973C56.2579 49.7555 56.4144 49.705 56.5446 49.6112C56.6749 49.5173 56.7723 49.3848 56.823 49.2325C56.9739 48.7783 57.2478 48.3749 57.6143 48.0673C57.9809 47.7596 58.4256 47.5597 58.8991 47.4898L58.2873 49.6209Z" fill="#1E328B"/>
</svg>
